<svg height="52" viewBox="0 0 23 52" width="23" xmlns="http://www.w3.org/2000/svg" xmlns:xlink="http://www.w3.org/1999/xlink"><defs><path id="a" d="m624.05 760.75c0-3.92 2.24-5.18 6.3-6.93l3.29-1.4c2.1-.91 3.36-1.54 3.36-2.52 0-2.1-2.73-3.08-10.15-3.08-1.33 0-3.85-1.33-3.85-4.48 0-2.31 1.96-4.34 4.9-4.34 6.44 0 12.74 6.65 12.74 14.28 0 4.06-1.82 6.3-4.41 7.49l-4.62 2.1c-1.89.84-2.87 1.89-2.87 3.01 0 1.05.21 2.38.7 3.78-.35.63-1.75.91-2.31.35-1.19-1.61-3.08-5.39-3.08-8.26zm5.32 23.45c-2.8 0-5.67-2.24-5.67-5.67 0-3.29 2.52-5.81 5.67-5.81 3.36 0 5.67 2.8 5.67 5.81 0 3.22-2.31 5.67-5.67 5.67z"/><filter id="b" height="119.5%" width="151%" x="-14.2%" y="-5.4%"><feMorphology in="SourceAlpha" operator="dilate" radius="0.5" result="shadowSpreadOuter1"/><feOffset dx="4" dy="4" in="shadowSpreadOuter1" result="shadowOffsetOuter1"/><feComposite in="shadowOffsetOuter1" in2="SourceAlpha" operator="out" result="shadowOffsetOuter1"/><feColorMatrix in="shadowOffsetOuter1" type="matrix" values="0 0 0 0 0.537388393   0 0 0 0 0.537388393   0 0 0 0 0.537388393  0 0 0 0.476987092 0"/></filter></defs><g fill="none" fill-rule="evenodd" transform="translate(-622 -737)"><use fill="#000" filter="url(#b)" xlink:href="#a"/><use fill="#fff" fill-rule="evenodd" stroke="#000" xlink:href="#a"/></g></svg>