<svg height="23" viewBox="0 0 23 23" width="23" xmlns="http://www.w3.org/2000/svg" xmlns:xlink="http://www.w3.org/1999/xlink"><defs><circle id="a" cx="10" cy="10" r="10"/><filter id="b" height="115%" width="115%" x="-5%" y="-5%"><feMorphology in="SourceAlpha" operator="dilate" radius="0.5" result="shadowSpreadOuter1"/><feOffset dx="1" dy="1" in="shadowSpreadOuter1" result="shadowOffsetOuter1"/><feComposite in="shadowOffsetOuter1" in2="SourceAlpha" operator="out" result="shadowOffsetOuter1"/><feColorMatrix in="shadowOffsetOuter1" type="matrix" values="0 0 0 0 0.537254902   0 0 0 0 0.537254902   0 0 0 0 0.537254902  0 0 0 0.48 0"/></filter></defs><g fill="none" fill-rule="evenodd" transform="translate(1 1)"><use fill="#000" filter="url(#b)" xlink:href="#a"/><use fill="#fff" fill-rule="evenodd" stroke="#191919" xlink:href="#a"/><path d="m14.4170806 14.3497602.5129179.0439643c.1025836.0879288.0879288.293096-.0146548.36637-.6741206-.0293096-1.2456577-.0439644-1.8465044-.0439644-.6594658 0-1.362896.0146548-1.8904687.0439644-.0879288-.0879288-.1025836-.2784412-.0293096-.36637l.4249891-.0439643c.3370603-.0293096.4982631-.0879288.4982631-.1905124 0-.0879288-.0293096-.2344767-.3224055-.644811-.6301563-.8939426-1.4508249-2.1102907-2.09563593-2.9456141-.39567951.498263-1.48013444 2.0956359-2.0663263 3.1214716-.11723838.2051672-.19051236.3663699-.19051236.4689535 0 .0879288.13189317.1612028.4249891.1905124l.3956795.0439643c.10258358.0879288.07327399.293096-.01465479.36637-.52757268-.0293096-1.08445494-.0439644-1.58271802-.0439644s-1.04049055.0146548-1.50944404.0439644c-.13189317-.0586192-.14654796-.2784412-.04396439-.36637l.36636991-.0439643c.79135901-.0879288 1.30427689-.7180851 1.74392078-1.3042769.17585756-.2344768 1.18703852-1.5240989 1.99305233-2.6964826.10258357-.1465479.13189316-.2491315.13189316-.2930959s-.05861918-.17585757-.17585755-.33706033l-2.19821948-3.15078125c-.48360828-.68877543-.76204941-.98187136-1.27496729-1.09910973l-.46895349-.10258358c-.07327398-.08792878-.05861918-.32240552.0293096-.36636991.68877543.02930959 1.17238371.04396439 1.69995639.04396439.57153706 0 1.2310029-.0146548 1.655992-.04396439.10258358.04396439.11723837.26378634.02930959.36636991l-.4103343.02930959c-.26378634.0146548-.43964389.10258358-.43964389.19051236 0 .13189317.14654796.38102471.43964389.80601381.48360829.70343023 1.34824128 2.02236191 1.87581398 2.68182775.3810247-.46895349 1.6999564-2.54993459 1.9637427-2.98957848.1172384-.19051235.2051672-.38102471.2051672-.48360828 0-.07327399-.219822-.16120277-.4836083-.19051236l-.3810247-.04396439c-.0879288-.10258357-.0879288-.30775072.0293096-.36636991.5129178.02930959.9818713.04396439 1.5534084.04396439.5422274 0 .9525617-.0146548 1.4068604-.04396439.1025836.07327398.1172384.27844113.0293096.36636991l-.3517151.02930959c-.4396439.04396439-.9672166.48360829-1.5680632 1.24565771-.5715371.73273982-1.2016933 1.61202761-1.9051235 2.59389897-.0879288.13189317-.146548.23447675-.146548.27844114s.0146548.14654796.1905123.3810247l2.4766606 3.48784158c.4982631.6887754.8792878.9232522 1.3335865.9672166z" fill="#191919"/></g></svg>