<svg height="107" viewBox="0 0 80 107" width="80" xmlns="http://www.w3.org/2000/svg"><g fill="none" fill-rule="evenodd"><path d="m66.2524531 1h-65.2524531v104.666667h78v-91.9191201z" stroke="#000" stroke-width="2"/><g fill="#000"><path d="m66.6666667 0h13.3333333v13.3333333z" transform="matrix(-1 0 0 -1 146.666666 13.333334)"/><path d="m20.4 76.6870241 14.3241203 17.9481697 24.8601821-26.6351938 13.0823643 34.020357h-65.33333337z"/><circle cx="64.333333" cy="49.666667" r="8.333333"/><path d="m8.56 22.4266667c.61333333-.96 1.2-1.76 1.8666667-2.5866667l.5333333-.0266667c.4266667.2666667 1.28.5333334 1.68.5866667.6933333.1066667.5333333.6133333.2666667 1.28-.56.3733333-2.3733334 1.6-3.76000003 2-.32-.4266667-.50666667-.88-.58666667-1.2533333zm8.8533333-.3466667c.2133334-1.9466667.4266667-3.52.5866667-5.68l-1.12.0266667c.4533333-1.7866667.88-3.5466667 1.3333333-5.3066667l2.1333334-.7733333.1066666-.48000003 1.9466667-.64c.1866667 2.93333333-.5333333 7.89333333-1.1733333 10.16000003l.4266666.48.3466667-.2933334.8.9333334-2.6933333 2.3733333c-.3466667 1.0666667-2.0266667 4.7466667-2.6666667 5.7066667l-1.3866667.1333333.0266667-4.0266667c0-1.04.88-2.08 1.3333333-2.6133333zm7.5733334-8.8 1.04-.24c.08-.3466667.2133333-.96.32-1.0666667.2133333-.24 1.68-1.2533333 1.92-1.3866666l.08-.24 1.36-.56000003-.1866667 2.69333333c1.4666667-.08 4-.16 3.8933333 1.7333333-.0533333 1.1733334-.56 3.4933334-1.0133333 4.16-.4533333.64-3.3066667 2.9333334-4.96 4.2933334l-.8533333 4.08-1.6 1.68-.5066667-.0266667c.3466667-3.2533333.96-9.9466667.9333333-11.04l-1.1466666.0533333-.0533334-.64zm2.7466666 8c2-2.16 2.6933334-3.1466667 2.72-3.76 0-.48-1.1733333-.5333333-1.8666666-.4266667zm13.0933334-10.1066667.0266666.4266667c.56.5866667 1.68 2.32 1.8933334 3.04-.2666667.4533333-.96 1.2-1.6266667 1.7333333l-.32-.96c-.64.3733334-1.36 1.3066667-1.6533333 1.8133334 2.9333333.48 4.6933333 2.08 4.7466666 3.4933333.08 2.5866667-3.84 6.5866667-4.9866666 7.4933333-.2133334.16-.4533334.2933334-.96.1333334-.72-.2133334-1.5466667-.88-1.5466667-1.36-.08-1.6533334 2.0533333-4.5333334 2.5333333-5.0133334.9333334-.4 1.4666667-.4266666 1.92-.3466666-.9066666-1.2266667-3.7066666-1.7866667-5.6266666-1.6l-.64-.64c-.2133334-1.2-.0533334-3.04.48-4.1066667.7733333-1.5733333 3.3333333-3.84 4.7466666-4.5066667zm.1066666 11.0133334c-.5333333-.2666667-2.48 3.2-2.0266666 3.9466666.7733333-.8533333 1.84-3.2266666 2.0266666-3.9466666z"/></g></g></svg>