<svg height="79" viewBox="0 0 79 79" width="79" xmlns="http://www.w3.org/2000/svg" xmlns:xlink="http://www.w3.org/1999/xlink"><linearGradient id="a" x1="0%" x2="101.999998%" y1="0%" y2="100.999999%"><stop offset="0" stop-color="#f00"/><stop offset=".222046604" stop-color="#ff0"/><stop offset=".412707731" stop-color="#008000"/><stop offset=".604475253" stop-color="#0ff"/><stop offset=".808232478" stop-color="#00f"/><stop offset="1" stop-color="#ee82ee"/></linearGradient><g fill="none" fill-rule="evenodd"><path d="m0 0h79v79h-79z" fill="#fff" fill-rule="evenodd"/><path d="m1 1h77v77h-77z" stroke="#000" stroke-width="2"/><text fill="#191919" font-family="AGaramondPro-Regular, Adobe Garamond Pro" font-size="55"><tspan x="12" y="54">P</tspan></text><path d="m32.243 45.749 4.416-1.035c.483-3.933 1.311-8.556 1.794-9.936 1.725-1.656 4.554-3.519 6.279-4.278-1.794-.621-5.451-1.449-9.66-2.139-1.932-.276-2.553-1.242-2.967-2.553-.69-2.07-1.242-4.14-1.725-6.348 10.488-.138 23.805 1.173 28.98 5.865 4.692 4.209 8.763 12.696 9.039 16.284.207 2.691-.138 4.209-2.622 6.279-5.658 4.692-15.939 6.762-21.735 7.383l-1.242-1.38-1.587 8.004 1.725 1.587-.483 2.139-5.934 2.691-.966-.552c-.069-4.83-.138-13.8.207-16.698l-.552-.276zm11.592-3.036c4.692-1.38 10.833-3.519 13.731-5.52-2.76-2.553-8.349-5.244-11.937-6.348-.483 4.14-1.311 9.108-1.794 11.868z" fill="url(#a)"/><g transform="matrix(.70710678 -.70710678 .70710678 .70710678 -23 54.781746)"><path d="m0 0h109.124892v16.349242h-109.124892z" fill="url(#a)"/><text fill="#191919" font-family="AGaramondPro-Bold, Adobe Garamond Pro" font-size="12" font-weight="bold"><tspan x="42.326" y="12">demo</tspan></text></g></g></svg>