<?xml version="1.0" encoding="UTF-8"?>
<svg width="363px" height="130px" viewBox="0 0 363 130" version="1.1" xmlns="http://www.w3.org/2000/svg" xmlns:xlink="http://www.w3.org/1999/xlink">
    <!-- Generator: Sketch 49 (51002) - http://www.bohemiancoding.com/sketch -->
    <title>Group</title>
    <desc>Created with Sketch.</desc>
    <defs>
        <linearGradient x1="50%" y1="0%" x2="50%" y2="100%" id="linearGradient-1">
            <stop stop-color="#FF0017" offset="0%"></stop>
            <stop stop-color="#9A0118" offset="100%"></stop>
        </linearGradient>
    </defs>
    <g id="✅-Splash-screen" stroke="none" stroke-width="1" fill="none" fill-rule="evenodd">
        <g id="Splash-screen" transform="translate(-318.000000, -360.000000)">
            <g id="Group" transform="translate(315.000000, 360.000000)">
                <text id="Publish" font-family="AGaramondPro-Regular, Adobe Garamond Pro" font-size="80" font-weight="normal" fill="#000000">
                    <tspan x="0.08" y="58">Publish</tspan>
                </text>
                <text id="or" font-family="AGaramondPro-Regular, Adobe Garamond Pro" font-size="48" font-weight="normal" fill="#000000">
                    <tspan x="120.368" y="96">or</tspan>
                </text>
                <path d="M190.207031,103.257812 C190.858076,103.309896 191.528642,103.401041 192.21875,103.53125 C192.908858,103.661459 193.579424,103.726562 194.230469,103.726562 L194.621094,103.726562 C194.699219,103.648437 194.822916,103.51823 194.992188,103.335938 C195.161459,103.153645 195.350259,102.964845 195.558594,102.769531 C195.766928,102.574218 195.955728,102.391928 196.125,102.222656 L196.496094,101.851562 C196.548177,101.851562 196.743488,101.740887 197.082031,101.519531 C197.420575,101.298176 197.680989,101.135417 197.863281,101.03125 C198.097657,100.927083 198.423175,100.770834 198.839844,100.5625 C199.256512,100.354166 199.58203,100.145834 199.816406,99.9375 C199.972657,99.7812492 200.22005,99.5273455 200.558594,99.1757812 C200.897137,98.824217 201.235675,98.4661477 201.574219,98.1015625 C201.912762,97.7369773 202.218749,97.3919287 202.492188,97.0664062 C202.765626,96.7408838 202.928385,96.5260422 202.980469,96.421875 C203.397137,95.8749973 203.742186,95.2565139 204.015625,94.5664062 C204.289064,93.8762986 204.490885,93.16016 204.621094,92.4179688 C204.751303,91.6757775 204.842448,90.9401078 204.894531,90.2109375 C204.946615,89.4817672 204.972656,88.8046906 204.972656,88.1796875 C204.972656,87.736977 204.842449,87.3463559 204.582031,87.0078125 C204.321613,86.6692691 204.087241,86.278648 203.878906,85.8359375 C203.826823,85.8098957 203.768229,85.7122404 203.703125,85.5429688 C203.638021,85.3736971 203.559896,85.1979176 203.46875,85.015625 C203.377604,84.8333324 203.286459,84.6640633 203.195312,84.5078125 C203.104166,84.3515617 203.032552,84.2734375 202.980469,84.2734375 C202.980469,84.1692703 202.869793,84.0065115 202.648438,83.7851562 L202.238281,83.375 C202.238281,83.3489582 202.199219,83.2578133 202.121094,83.1015625 C202.042968,82.9453117 201.958334,82.7695322 201.867188,82.5742188 C201.776041,82.3789053 201.684896,82.2031258 201.59375,82.046875 C201.502604,81.8906242 201.43099,81.7994793 201.378906,81.7734375 C201.378906,81.7473957 201.313803,81.6888025 201.183594,81.5976562 C201.053385,81.50651 200.903647,81.4023443 200.734375,81.2851562 C200.565103,81.1679682 200.395834,81.0572922 200.226562,80.953125 C200.057291,80.8489578 199.920573,80.7578129 199.816406,80.6796875 C199.764323,80.6276039 199.660157,80.5690107 199.503906,80.5039062 C199.347655,80.4388018 199.256511,80.40625 199.230469,80.40625 C199.204427,80.3802082 199.152344,80.3085943 199.074219,80.1914062 L198.839844,79.8398438 C198.761718,79.7226557 198.683594,79.6119797 198.605469,79.5078125 C198.527343,79.4036453 198.488281,79.3385418 198.488281,79.3125 C198.436198,79.3125 198.371094,79.2734379 198.292969,79.1953125 C198.266927,79.1692707 198.240886,79.1302086 198.214844,79.078125 C198.136718,79.0520832 198.006511,79.0130211 197.824219,78.9609375 C197.641926,78.9088539 197.446616,78.8502607 197.238281,78.7851562 C197.029947,78.7200518 196.828126,78.6614586 196.632812,78.609375 C196.437499,78.5572914 196.300782,78.53125 196.222656,78.53125 C196.196614,78.53125 196.10547,78.5182293 195.949219,78.4921875 C195.792968,78.4661457 195.623699,78.4335939 195.441406,78.3945312 C195.259114,78.3554686 195.089845,78.3229168 194.933594,78.296875 C194.777343,78.2708332 194.673177,78.2578125 194.621094,78.2578125 C194.56901,78.2317707 194.451824,78.1927086 194.269531,78.140625 C194.087239,78.0885414 193.891928,78.0234379 193.683594,77.9453125 C193.475259,77.8671871 193.273438,77.8020836 193.078125,77.75 C192.882812,77.6979164 192.759115,77.6588543 192.707031,77.6328125 L191.925781,77.6328125 C191.873698,77.7109379 191.769532,77.860676 191.613281,78.0820312 C191.45703,78.3033865 191.287761,78.5312488 191.105469,78.765625 C190.923176,79.0000012 190.747397,79.2213531 190.578125,79.4296875 C190.408853,79.6380219 190.285157,79.7812496 190.207031,79.859375 C190.154948,79.9635422 190.089844,80.0872389 190.011719,80.2304688 C189.933593,80.3736986 189.855469,80.5234367 189.777344,80.6796875 L189.464844,81.2265625 L189.464844,86.0703125 C189.204426,86.5651066 189.028646,87.0989555 188.9375,87.671875 C188.846354,88.2447945 188.800781,88.8177055 188.800781,89.390625 L188.800781,90.09375 C188.800781,90.3281262 188.826823,90.5494781 188.878906,90.7578125 C188.826823,90.8098961 188.742188,90.9335928 188.625,91.1289062 C188.507812,91.3242197 188.436198,91.4479164 188.410156,91.5 L188.410156,92.0859375 C188.410156,92.3723973 188.429687,92.756508 188.46875,93.2382812 C188.507813,93.7200545 188.540364,94.1887998 188.566406,94.6445312 C188.592448,95.1002627 188.618489,95.5039045 188.644531,95.8554688 C188.670573,96.207033 188.683594,96.3958332 188.683594,96.421875 C188.683594,96.4739586 188.709635,96.5716139 188.761719,96.7148438 C188.813802,96.8580736 188.872396,97.0208324 188.9375,97.203125 C189.002604,97.3854176 189.061198,97.5546867 189.113281,97.7109375 C189.165365,97.8671883 189.204427,97.9583332 189.230469,97.984375 L189.230469,100.210938 C189.230469,100.263021 189.184896,100.347656 189.09375,100.464844 C189.002604,100.582032 188.93099,100.705729 188.878906,100.835938 C188.878906,100.861979 188.800782,100.979166 188.644531,101.1875 C188.48828,101.395834 188.410156,101.526041 188.410156,101.578125 L188.410156,101.851562 C188.410156,101.877604 188.449218,101.929687 188.527344,102.007812 L188.683594,102.164062 C188.709636,102.164062 188.839843,102.11198 189.074219,102.007812 C189.308595,101.903645 189.438802,101.851562 189.464844,101.851562 C189.829429,101.851562 190.011719,102.007811 190.011719,102.320312 C190.011719,102.42448 190.005208,102.509114 189.992188,102.574219 C189.979167,102.639323 189.972656,102.723958 189.972656,102.828125 C189.972656,103.062501 190.05078,103.205729 190.207031,103.257812 Z M173.449219,125.953125 C173.423177,125.848958 173.507812,125.679689 173.703125,125.445312 C173.898438,125.210936 174.139321,124.983074 174.425781,124.761719 C174.712241,124.540363 174.998696,124.338543 175.285156,124.15625 C175.571616,123.973957 175.779947,123.882812 175.910156,123.882812 C175.988282,123.856771 176.157551,123.830729 176.417969,123.804688 C176.678387,123.778646 176.958332,123.752604 177.257812,123.726562 C177.557293,123.700521 177.837238,123.674479 178.097656,123.648438 C178.358074,123.622396 178.527343,123.609375 178.605469,123.609375 C178.657552,123.557291 178.820311,123.433595 179.09375,123.238281 C179.367189,123.042968 179.56901,122.89323 179.699219,122.789062 C179.725261,122.710937 179.816405,122.606771 179.972656,122.476562 C180.128907,122.346354 180.233073,122.242188 180.285156,122.164062 C180.285156,122.059895 180.291667,121.871095 180.304688,121.597656 C180.317708,121.324217 180.337239,121.024741 180.363281,120.699219 C180.389323,120.373696 180.421875,120.06771 180.460938,119.78125 C180.5,119.49479 180.532552,119.29948 180.558594,119.195312 C180.558594,119.169271 180.584635,119.052084 180.636719,118.84375 C180.688802,118.635416 180.740885,118.407553 180.792969,118.160156 C180.845052,117.912759 180.897135,117.678387 180.949219,117.457031 C181.001302,117.235676 181.027344,117.098959 181.027344,117.046875 L181.027344,116.890625 C181.027344,116.499998 180.94922,116.109377 180.792969,115.71875 C180.636718,115.328123 180.558594,114.911461 180.558594,114.46875 C180.558594,113.921872 180.636718,113.375003 180.792969,112.828125 C180.94922,112.281247 181.027344,111.708336 181.027344,111.109375 L181.027344,110.757812 C181.027344,110.653645 181.014323,110.321617 180.988281,109.761719 C180.962239,109.20182 180.929688,108.602868 180.890625,107.964844 C180.851562,107.32682 180.819011,106.727867 180.792969,106.167969 C180.766927,105.60807 180.753906,105.250001 180.753906,105.09375 L180.753906,104.585938 C180.753906,104.351561 180.812499,104.117189 180.929688,103.882812 C181.046876,103.648436 181.183593,103.420574 181.339844,103.199219 C181.496095,102.977863 181.632812,102.743491 181.75,102.496094 C181.867188,102.248697 181.925781,101.981772 181.925781,101.695312 C181.925781,101.460936 181.867188,101.213543 181.75,100.953125 C181.632812,100.692707 181.574219,100.445314 181.574219,100.210938 C181.574219,99.8723941 181.665364,99.5598973 181.847656,99.2734375 C182.029949,98.9869777 182.121094,98.6744809 182.121094,98.3359375 C182.121094,97.7890598 182.04297,97.1250039 181.886719,96.34375 C181.730468,95.5624961 181.652344,94.8463574 181.652344,94.1953125 C181.60026,93.9609363 181.574219,93.5572945 181.574219,92.984375 L181.574219,89.2929688 C181.574219,88.7070283 181.60026,88.2968762 181.652344,88.0625 C181.444009,87.7499984 181.287761,87.4049498 181.183594,87.0273438 C181.079427,86.6497377 181.027344,86.2916684 181.027344,85.953125 L181.027344,85.8359375 C181.053386,85.8098957 181.092448,85.7252611 181.144531,85.5820312 C181.196615,85.4388014 181.261718,85.2890633 181.339844,85.1328125 C181.417969,84.9765617 181.483073,84.833334 181.535156,84.703125 C181.58724,84.572916 181.626302,84.4947918 181.652344,84.46875 L181.652344,83.0625 C181.652344,82.4114551 181.561199,81.7604199 181.378906,81.109375 C181.196614,80.4583301 180.832034,79.9505227 180.285156,79.5859375 C180.154947,79.5859375 179.940106,79.5598961 179.640625,79.5078125 C179.341144,79.4557289 179.035158,79.4036461 178.722656,79.3515625 C178.410155,79.2994789 178.110679,79.2473961 177.824219,79.1953125 C177.537759,79.1432289 177.342448,79.1041668 177.238281,79.078125 C177.212239,79.0260414 177.095053,78.9544275 176.886719,78.8632812 C176.678384,78.772135 176.548177,78.7265625 176.496094,78.7265625 C176.44401,78.7265625 176.287762,78.7395832 176.027344,78.765625 C175.766926,78.7916668 175.519532,78.8046875 175.285156,78.8046875 C175.024738,78.8046875 174.86849,78.7786461 174.816406,78.7265625 C174.608072,78.7005207 174.406251,78.6093758 174.210938,78.453125 C174.015624,78.2968742 173.839845,78.1145844 173.683594,77.90625 C173.527343,77.6979156 173.403646,77.4765637 173.3125,77.2421875 C173.221354,77.0078113 173.175781,76.7994801 173.175781,76.6171875 C173.175781,76.3046859 173.253905,76.0052098 173.410156,75.71875 C173.566407,75.4322902 173.761718,75.1783865 173.996094,74.9570312 C174.23047,74.735676 174.490884,74.5598965 174.777344,74.4296875 C175.063804,74.2994785 175.350259,74.2213543 175.636719,74.1953125 C175.714844,74.1692707 175.929686,74.1432293 176.28125,74.1171875 C176.632814,74.0911457 177.029946,74.0585939 177.472656,74.0195312 C177.915367,73.9804686 178.34505,73.9479168 178.761719,73.921875 C179.178387,73.8958332 179.490884,73.8697918 179.699219,73.84375 L181.027344,73.84375 C181.105469,73.8697918 181.294269,73.9023436 181.59375,73.9414062 C181.893231,73.9804689 182.212238,74.0195311 182.550781,74.0585938 C182.889325,74.0976564 183.208332,74.1302082 183.507812,74.15625 C183.807293,74.1822918 183.996093,74.1953125 184.074219,74.1953125 L193.058594,74.1953125 C193.110677,74.1953125 193.266926,74.240885 193.527344,74.3320312 C193.787762,74.4231775 193.970052,74.46875 194.074219,74.46875 L194.230469,74.46875 C194.699221,74.46875 195.115884,74.4101568 195.480469,74.2929688 C195.845054,74.1757807 196.32682,74.1171875 196.925781,74.1171875 C197.134116,74.1171875 197.427081,74.1302082 197.804688,74.15625 C198.182294,74.1822918 198.410156,74.1953125 198.488281,74.1953125 C198.514323,74.1953125 198.670571,74.240885 198.957031,74.3320312 C199.243491,74.4231775 199.438802,74.46875 199.542969,74.46875 C200.011721,74.5208336 200.55208,74.5664061 201.164062,74.6054688 C201.776045,74.6445314 202.303383,74.7552074 202.746094,74.9375 C203.735682,75.3020852 204.640621,75.7317684 205.460938,76.2265625 C206.281254,76.7213566 207.108069,77.3072883 207.941406,77.984375 C208.462242,78.375002 209.022132,78.9674439 209.621094,79.7617188 C210.220055,80.5559936 210.786456,81.4218703 211.320312,82.359375 C211.854169,83.2968797 212.316404,84.2408807 212.707031,85.1914062 C213.097658,86.1419318 213.332031,86.9817672 213.410156,87.7109375 L213.410156,89.390625 C213.410156,89.4427086 213.455729,89.6119777 213.546875,89.8984375 C213.638021,90.1848973 213.683594,90.3541664 213.683594,90.40625 L213.683594,90.7578125 C213.501301,91.721359 213.29948,92.6718703 213.078125,93.609375 C212.85677,94.5468797 212.583335,95.4648393 212.257812,96.3632812 C211.93229,97.2617232 211.528648,98.1276 211.046875,98.9609375 C210.565102,99.794275 209.97266,100.575517 209.269531,101.304688 L209.171875,101.402344 C209.106771,101.467448 209.028646,101.532552 208.9375,101.597656 C208.846354,101.662761 208.755209,101.721354 208.664062,101.773438 C208.572916,101.825521 208.514323,101.851562 208.488281,101.851562 C208.436198,101.877604 208.319011,102.007811 208.136719,102.242188 C207.954426,102.476564 207.746095,102.736978 207.511719,103.023438 C207.277343,103.309897 207.04297,103.602863 206.808594,103.902344 C206.574218,104.201824 206.404948,104.429687 206.300781,104.585938 C206.248698,104.638021 206.144532,104.768228 205.988281,104.976562 C205.83203,105.184897 205.753906,105.315104 205.753906,105.367188 C205.180987,105.393229 204.725262,105.425781 204.386719,105.464844 C204.048175,105.503906 203.696616,105.666665 203.332031,105.953125 C203.01953,106.109376 202.641929,106.272135 202.199219,106.441406 C201.756508,106.610678 201.294273,106.760416 200.8125,106.890625 C200.330727,107.020834 199.855471,107.125 199.386719,107.203125 C198.917966,107.28125 198.501304,107.320312 198.136719,107.320312 C197.459632,107.320312 196.821618,107.196616 196.222656,106.949219 C195.623695,106.701822 195.024743,106.526042 194.425781,106.421875 L193.253906,106.421875 C192.73307,106.369791 192.277346,106.220053 191.886719,105.972656 C191.496092,105.725259 191.027346,105.601562 190.480469,105.601562 L190.167969,105.601562 C189.959634,105.601562 189.738282,105.627604 189.503906,105.679688 C189.26953,105.731771 189.061199,105.822916 188.878906,105.953125 C188.878906,106.03125 188.859375,106.161457 188.820312,106.34375 C188.78125,106.526043 188.729167,106.714843 188.664062,106.910156 C188.598958,107.10547 188.540365,107.28776 188.488281,107.457031 C188.436198,107.626303 188.410156,107.736979 188.410156,107.789062 C188.384114,107.841146 188.345052,107.938801 188.292969,108.082031 C188.240885,108.225261 188.182292,108.368489 188.117188,108.511719 C188.052083,108.654949 187.99349,108.791666 187.941406,108.921875 L187.863281,109.117188 C187.811198,109.117188 187.785156,109.16927 187.785156,109.273438 L187.785156,109.566406 C187.785156,109.631511 187.811198,109.690104 187.863281,109.742188 C187.863281,109.794271 187.954426,109.96354 188.136719,110.25 C188.319011,110.53646 188.410156,110.705729 188.410156,110.757812 C188.410156,110.809896 188.429687,110.920572 188.46875,111.089844 C188.507813,111.259115 188.540364,111.441405 188.566406,111.636719 C188.592448,111.832032 188.618489,112.007812 188.644531,112.164062 C188.670573,112.320313 188.683594,112.411458 188.683594,112.4375 L188.878906,112.984375 L188.996094,113.179688 C188.996094,113.518231 188.911459,113.902342 188.742188,114.332031 C188.572916,114.761721 188.46224,115.11979 188.410156,115.40625 C188.384114,115.458334 188.345052,115.562499 188.292969,115.71875 C188.240885,115.875001 188.182292,116.04427 188.117188,116.226562 C188.052083,116.408855 187.99349,116.578124 187.941406,116.734375 C187.889323,116.890626 187.863281,116.994791 187.863281,117.046875 C187.863281,117.125 187.889323,117.29427 187.941406,117.554688 C187.99349,117.815105 188.052083,118.101561 188.117188,118.414062 C188.182292,118.726564 188.240885,119.01953 188.292969,119.292969 C188.345052,119.566408 188.384114,119.742187 188.410156,119.820312 C188.488282,120.184898 188.540364,120.562498 188.566406,120.953125 C188.592448,121.343752 188.651041,121.734373 188.742188,122.125 C188.833334,122.515627 188.976562,122.880207 189.171875,123.21875 C189.367188,123.557293 189.647134,123.85677 190.011719,124.117188 C190.115886,124.195313 190.311196,124.299479 190.597656,124.429688 C190.884116,124.559896 191.053385,124.625 191.105469,124.625 L194.621094,124.625 C194.751303,124.625 194.959634,124.722655 195.246094,124.917969 C195.532554,125.113282 195.812499,125.334634 196.085938,125.582031 C196.359376,125.829428 196.600259,126.057291 196.808594,126.265625 C197.016928,126.473959 197.121094,126.591146 197.121094,126.617188 L197.121094,126.851562 C196.912759,127.216148 196.723959,127.515624 196.554688,127.75 C196.385416,127.984376 196.203126,128.186197 196.007812,128.355469 C195.812499,128.52474 195.591147,128.654947 195.34375,128.746094 C195.096353,128.83724 194.790366,128.921875 194.425781,129 C194.191405,129 193.794274,128.986979 193.234375,128.960938 C192.674476,128.934896 192.095055,128.921875 191.496094,128.921875 C190.897132,128.921875 190.330732,128.934896 189.796875,128.960938 C189.263018,128.986979 188.891928,129 188.683594,129 C188.553385,129 188.312502,129.032552 187.960938,129.097656 C187.609373,129.162761 187.394532,129.221354 187.316406,129.273438 L178.058594,129.273438 C177.72005,129.039061 177.407554,128.921875 177.121094,128.921875 C176.990885,128.921875 176.860678,128.934896 176.730469,128.960938 C176.60026,128.986979 176.430991,129 176.222656,129 L175.910156,129 C175.128902,128.869791 174.542971,128.524742 174.152344,127.964844 C173.761717,127.404945 173.527344,126.734379 173.449219,125.953125 Z M226.105469,101.03125 C226.105469,101.656253 226.248696,102.105467 226.535156,102.378906 C226.821616,102.652345 227.179685,102.828125 227.609375,102.90625 C228.039065,102.984375 228.50781,103.016927 229.015625,103.003906 C229.52344,102.990885 229.985675,103.010416 230.402344,103.0625 C230.454427,103.0625 230.558593,103.108072 230.714844,103.199219 C230.871095,103.290365 230.97526,103.335938 231.027344,103.335938 C231.54818,103.492188 231.938801,103.583333 232.199219,103.609375 C232.459637,103.635417 232.850258,103.648438 233.371094,103.648438 C233.865888,103.648438 234.373695,103.628906 234.894531,103.589844 C235.415367,103.550781 235.890623,103.453126 236.320312,103.296875 C236.750002,103.140624 237.101561,102.893231 237.375,102.554688 C237.648439,102.216144 237.785156,101.747399 237.785156,101.148438 C237.785156,100.393225 237.66146,99.6054729 237.414062,98.7851562 C237.166665,97.9648396 236.743493,97.3203148 236.144531,96.8515625 C236.014322,96.8515625 235.812501,96.8385418 235.539062,96.8125 C235.265624,96.7864582 234.972658,96.7604168 234.660156,96.734375 C234.347655,96.7083332 234.041668,96.6757814 233.742188,96.6367188 C233.442707,96.5976561 233.227865,96.578125 233.097656,96.578125 C233.045573,96.5520832 232.980469,96.5130211 232.902344,96.4609375 C232.746093,96.3567703 232.654948,96.3046875 232.628906,96.3046875 L231.964844,96.3046875 C231.417966,96.3046875 230.799483,96.4414049 230.109375,96.7148438 C229.419267,96.9882826 228.781253,97.346352 228.195312,97.7890625 C227.609372,98.231773 227.114585,98.7330701 226.710938,99.2929688 C226.30729,99.8528674 226.105469,100.432289 226.105469,101.03125 Z M217.160156,110.679688 C217.160156,109.143221 217.335936,107.587247 217.6875,106.011719 C218.039064,104.43619 218.670568,102.997402 219.582031,101.695312 C219.764324,101.434895 220.024738,101.089846 220.363281,100.660156 C220.701825,100.230467 221.033853,99.8007834 221.359375,99.3710938 C221.684897,98.9414041 221.964843,98.5572934 222.199219,98.21875 C222.433595,97.8802066 222.563802,97.6848961 222.589844,97.6328125 C222.928387,97.2161438 223.371091,96.8255227 223.917969,96.4609375 C224.464846,96.0963523 225.037757,95.7447934 225.636719,95.40625 C226.23568,95.0677066 226.834632,94.7356787 227.433594,94.4101562 C228.032555,94.0846338 228.553383,93.7656266 228.996094,93.453125 C229.51693,93.3489578 230.037758,93.2643232 230.558594,93.1992188 C231.07943,93.1341143 231.600258,93.1015625 232.121094,93.1015625 C232.980473,93.1015625 233.761715,93.1927074 234.464844,93.375 C235.011721,93.7395852 235.597653,93.9674475 236.222656,94.0585938 C236.847659,94.14974 237.459632,94.2864574 238.058594,94.46875 C238.553388,94.598959 239.041664,94.8007799 239.523438,95.0742188 C240.005211,95.3476576 240.447915,95.6731752 240.851562,96.0507812 C241.25521,96.4283873 241.632811,96.8320291 241.984375,97.2617188 C242.335939,97.6914084 242.641926,98.1145813 242.902344,98.53125 C242.928386,98.5572918 242.967448,98.6223953 243.019531,98.7265625 C243.071615,98.8307297 243.130208,98.9414057 243.195312,99.0585938 C243.260417,99.1757818 243.31901,99.2864578 243.371094,99.390625 C243.423177,99.4947922 243.449219,99.5598957 243.449219,99.5859375 C243.579428,99.7682301 243.755207,99.970051 243.976562,100.191406 C244.197918,100.412762 244.412759,100.647134 244.621094,100.894531 C244.829428,101.141928 245.005208,101.402342 245.148438,101.675781 C245.291667,101.94922 245.363281,102.229165 245.363281,102.515625 C245.363281,102.723959 245.350261,102.977863 245.324219,103.277344 C245.298177,103.576824 245.246094,103.876301 245.167969,104.175781 C245.089843,104.475262 244.979167,104.755207 244.835938,105.015625 C244.692708,105.276043 244.503907,105.458333 244.269531,105.5625 C244.217448,105.5625 244.119792,105.588541 243.976562,105.640625 C243.833333,105.692709 243.670574,105.751302 243.488281,105.816406 C243.305989,105.881511 243.130209,105.940104 242.960938,105.992188 C242.791666,106.044271 242.68099,106.083333 242.628906,106.109375 C242.602864,106.109375 242.51823,106.141927 242.375,106.207031 C242.23177,106.272136 242.147136,106.317708 242.121094,106.34375 C241.78255,106.34375 241.268233,106.35026 240.578125,106.363281 C239.888017,106.376302 239.106775,106.389323 238.234375,106.402344 C237.361975,106.415365 236.444015,106.434896 235.480469,106.460938 C234.516922,106.486979 233.598963,106.513021 232.726562,106.539062 C231.854162,106.565104 231.06641,106.584635 230.363281,106.597656 C229.660153,106.610677 229.139325,106.617188 228.800781,106.617188 C228.696614,106.617188 228.501304,106.623698 228.214844,106.636719 C227.928384,106.64974 227.628908,106.669271 227.316406,106.695312 C227.003905,106.721354 226.710939,106.753906 226.4375,106.792969 C226.164061,106.832031 225.975261,106.864583 225.871094,106.890625 C225.194007,107.437503 224.744793,108.095048 224.523438,108.863281 C224.302082,109.631514 224.191406,110.445308 224.191406,111.304688 C224.191406,112.242192 224.282551,113.055986 224.464844,113.746094 C224.647136,114.436201 224.920571,115.223954 225.285156,116.109375 C225.33724,116.161459 225.395833,116.259114 225.460938,116.402344 C225.526042,116.545574 225.558594,116.643229 225.558594,116.695312 C225.584636,116.721354 225.656249,116.779947 225.773438,116.871094 C225.890626,116.96224 226.007812,117.066406 226.125,117.183594 C226.242188,117.300782 226.352864,117.417968 226.457031,117.535156 C226.561198,117.652344 226.613281,117.736979 226.613281,117.789062 L226.867188,118.042969 C227.010417,118.186199 227.160155,118.348957 227.316406,118.53125 C227.472657,118.713543 227.615885,118.889322 227.746094,119.058594 C227.876303,119.227865 227.954427,119.338541 227.980469,119.390625 C228.032552,119.390625 228.091146,119.429687 228.15625,119.507812 C228.221354,119.585938 228.279948,119.625 228.332031,119.625 C228.566407,119.833334 228.859373,120.080728 229.210938,120.367188 C229.562502,120.653647 229.90755,120.927082 230.246094,121.1875 C230.636721,121.500002 231.053383,121.812498 231.496094,122.125 C232.615891,122.437502 233.696609,122.59375 234.738281,122.59375 C235.779953,122.59375 236.886713,122.437502 238.058594,122.125 C238.73568,121.708331 239.432288,121.389324 240.148438,121.167969 C240.864587,120.946613 241.587236,120.718751 242.316406,120.484375 C242.36849,120.432291 242.472655,120.373698 242.628906,120.308594 C242.785157,120.243489 242.876302,120.184896 242.902344,120.132812 L243.175781,120.132812 C243.358074,120.210938 243.585936,120.315104 243.859375,120.445312 C244.132814,120.575521 244.269531,120.679687 244.269531,120.757812 C244.321615,120.809896 244.380208,121.005207 244.445312,121.34375 C244.510417,121.682293 244.542969,121.942707 244.542969,122.125 C244.542969,122.567711 244.419272,123.088539 244.171875,123.6875 C243.924478,124.286461 243.683595,124.729165 243.449219,125.015625 C243.449219,125.067709 243.299481,125.197916 243,125.40625 C242.700519,125.614584 242.472657,125.770833 242.316406,125.875 C241.483069,126.421878 240.662764,127.001299 239.855469,127.613281 C239.048173,128.225263 238.175786,128.71354 237.238281,129.078125 C237.186198,129.104167 237.062501,129.136719 236.867188,129.175781 C236.671874,129.214844 236.470053,129.247396 236.261719,129.273438 C236.053384,129.299479 235.858074,129.325521 235.675781,129.351562 C235.493489,129.377604 235.389323,129.390625 235.363281,129.390625 C234.868487,129.520834 234.445314,129.644531 234.09375,129.761719 C233.742186,129.878907 233.332034,129.9375 232.863281,129.9375 C232.420571,129.9375 232.016929,129.878907 231.652344,129.761719 C231.287759,129.644531 230.871096,129.520834 230.402344,129.390625 C230.167968,129.338541 229.83594,129.253907 229.40625,129.136719 C228.97656,129.019531 228.527346,128.882813 228.058594,128.726562 C227.589841,128.570312 227.153648,128.401043 226.75,128.21875 C226.346352,128.036457 226.053386,127.867188 225.871094,127.710938 C225.792968,127.684896 225.649741,127.567709 225.441406,127.359375 C225.233072,127.151041 225.00521,126.929689 224.757812,126.695312 C224.510415,126.460936 224.282553,126.239584 224.074219,126.03125 C223.865884,125.822916 223.722657,125.692709 223.644531,125.640625 C223.618489,125.588541 223.488282,125.484376 223.253906,125.328125 C223.01953,125.171874 222.889323,125.067709 222.863281,125.015625 C222.733072,124.963541 222.576824,124.839845 222.394531,124.644531 C222.212239,124.449218 222.095052,124.325521 222.042969,124.273438 C221.964843,124.16927 221.802085,123.928387 221.554688,123.550781 C221.30729,123.173175 221.040366,122.763023 220.753906,122.320312 C220.467446,121.877602 220.187501,121.447919 219.914062,121.03125 C219.640624,120.614581 219.451823,120.315105 219.347656,120.132812 C218.983071,119.611977 218.742188,119.091148 218.625,118.570312 C218.507812,118.049477 218.384115,117.489586 218.253906,116.890625 C218.253906,116.864583 218.208334,116.740887 218.117188,116.519531 C218.026041,116.298176 217.980469,116.161459 217.980469,116.109375 C217.641925,115.328121 217.420573,114.449224 217.316406,113.472656 C217.212239,112.496089 217.160156,111.565109 217.160156,110.679688 Z M250.832031,128.726562 C250.493488,128.518228 250.278646,128.251304 250.1875,127.925781 C250.096354,127.600259 250.050781,127.25521 250.050781,126.890625 C250.050781,126.473956 250.252602,126.057294 250.65625,125.640625 C251.059898,125.223956 251.535154,124.820314 252.082031,124.429688 C252.628909,124.039061 253.169268,123.65495 253.703125,123.277344 C254.236982,122.899738 254.634113,122.554689 254.894531,122.242188 C255.128907,121.903644 255.278646,121.473961 255.34375,120.953125 C255.408854,120.432289 255.441406,120.054689 255.441406,119.820312 L255.441406,114.859375 C255.441406,114.807291 255.473958,114.677084 255.539062,114.46875 C255.604167,114.260416 255.675781,114.039064 255.753906,113.804688 C255.832032,113.570311 255.903646,113.348959 255.96875,113.140625 C256.033854,112.932291 256.066406,112.789063 256.066406,112.710938 C256.014323,112.632812 255.942709,112.417971 255.851562,112.066406 C255.760416,111.714842 255.669271,111.343752 255.578125,110.953125 C255.486979,110.562498 255.402344,110.191408 255.324219,109.839844 C255.246093,109.488279 255.194011,109.247396 255.167969,109.117188 L255.167969,108.804688 C255.167969,108.049475 255.226562,107.307295 255.34375,106.578125 C255.460938,105.848955 255.519531,105.106775 255.519531,104.351562 C255.519531,104.247395 255.513021,104.110678 255.5,103.941406 C255.486979,103.772135 255.480469,103.622396 255.480469,103.492188 C255.454427,103.335937 255.441406,103.166668 255.441406,102.984375 C255.441406,102.958333 255.389323,102.847657 255.285156,102.652344 C255.180989,102.45703 255.057292,102.229168 254.914062,101.96875 L254.484375,101.1875 C254.341145,100.927082 254.217448,100.718751 254.113281,100.5625 C253.95703,100.302082 253.742189,100.093751 253.46875,99.9375 L252.648438,99.46875 C252.374999,99.3124992 252.140626,99.1302094 251.945312,98.921875 C251.749999,98.7135406 251.652344,98.4401059 251.652344,98.1015625 L251.652344,97.828125 C251.678386,97.7760414 251.736979,97.6979172 251.828125,97.59375 C251.919271,97.4895828 252.023437,97.3789068 252.140625,97.2617188 C252.257813,97.1445307 252.368489,97.040365 252.472656,96.9492188 C252.576823,96.8580725 252.667968,96.7994793 252.746094,96.7734375 C252.824219,96.7473957 252.902343,96.7083336 252.980469,96.65625 C253.13672,96.5520828 253.266927,96.5 253.371094,96.5 C253.371094,96.4739582 253.436197,96.4348961 253.566406,96.3828125 C253.696615,96.3307289 253.833333,96.2656254 253.976562,96.1875 C254.119792,96.1093746 254.26302,96.0442711 254.40625,95.9921875 C254.54948,95.9401039 254.647135,95.9010418 254.699219,95.875 C254.725261,95.875 254.816405,95.8033861 254.972656,95.6601562 C255.128907,95.5169264 255.298176,95.3671883 255.480469,95.2109375 C255.662761,95.0546867 255.82552,94.9049486 255.96875,94.7617188 C256.11198,94.6184889 256.209635,94.546875 256.261719,94.546875 L257.550781,94.546875 C257.96745,94.546875 258.410154,94.5729164 258.878906,94.625 C259.347659,94.6770836 259.764321,94.8463527 260.128906,95.1328125 C260.18099,95.1848961 260.317707,95.3151031 260.539062,95.5234375 C260.760418,95.7317719 260.871094,95.8489582 260.871094,95.875 C260.949219,96.005209 261.020833,96.1809885 261.085938,96.4023438 C261.151042,96.623699 261.222656,96.8385406 261.300781,97.046875 C261.378907,97.2552094 261.489583,97.4374992 261.632812,97.59375 C261.776042,97.7500008 261.964843,97.828125 262.199219,97.828125 C262.407553,97.828125 262.557291,97.7630215 262.648438,97.6328125 C262.739584,97.5026035 262.817708,97.3463551 262.882812,97.1640625 C262.947917,96.9817699 263.00651,96.7994801 263.058594,96.6171875 C263.110677,96.4348949 263.188802,96.2786465 263.292969,96.1484375 L263.644531,95.796875 C263.800782,95.6406242 263.970051,95.4843758 264.152344,95.328125 C264.334636,95.1718742 264.523437,95.0221361 264.71875,94.8789062 C264.914063,94.7356764 265.089843,94.6250004 265.246094,94.546875 C265.272136,94.5208332 265.389322,94.4817711 265.597656,94.4296875 C265.805991,94.3776039 266.033853,94.3255211 266.28125,94.2734375 C266.528647,94.2213539 266.756509,94.1757814 266.964844,94.1367188 C267.173178,94.0976561 267.303385,94.078125 267.355469,94.078125 C267.433594,94.0520832 267.635415,93.9804693 267.960938,93.8632812 C268.28646,93.7460932 268.631509,93.6223965 268.996094,93.4921875 C269.360679,93.3619785 269.705728,93.2447922 270.03125,93.140625 C270.356772,93.0364578 270.558593,92.9583336 270.636719,92.90625 C270.688802,92.90625 270.884113,92.8932293 271.222656,92.8671875 C271.5612,92.8411457 271.821614,92.828125 272.003906,92.828125 C272.029948,92.828125 272.108072,92.8346354 272.238281,92.8476562 C272.36849,92.8606771 272.505208,92.8671875 272.648438,92.8671875 C272.791667,92.8671875 272.934895,92.8736979 273.078125,92.8867188 C273.221355,92.8997396 273.31901,92.90625 273.371094,92.90625 L273.644531,93.1796875 C274.139325,93.5703145 274.58854,93.9153631 274.992188,94.2148438 C275.395835,94.5143244 275.734374,94.8333316 276.007812,95.171875 C276.281251,95.5104184 276.496093,95.9075498 276.652344,96.3632812 C276.808595,96.8190127 276.886719,97.398434 276.886719,98.1015625 L276.886719,98.609375 C276.860677,98.7135422 276.828125,98.895832 276.789062,99.15625 C276.75,99.416668 276.697917,99.6901027 276.632812,99.9765625 C276.567708,100.263022 276.509115,100.536457 276.457031,100.796875 C276.404948,101.057293 276.365886,101.226562 276.339844,101.304688 C276.209635,101.513022 276.007814,101.688801 275.734375,101.832031 C275.460936,101.975261 275.16146,102.085937 274.835938,102.164062 C274.510415,102.242188 274.191408,102.294271 273.878906,102.320312 C273.566405,102.346354 273.305991,102.359375 273.097656,102.359375 C272.550779,102.359375 271.938805,102.26823 271.261719,102.085938 C270.584632,101.903645 270.024742,101.643231 269.582031,101.304688 C269.165363,101.096353 268.774741,100.86198 268.410156,100.601562 C268.045571,100.341145 267.641929,100.210938 267.199219,100.210938 L266.652344,100.210938 C266.209633,100.210938 265.760419,100.243489 265.304688,100.308594 C264.848956,100.373698 264.464845,100.549478 264.152344,100.835938 C264.230469,101.669275 264.171876,102.522131 263.976562,103.394531 C263.781249,104.266931 263.657552,105.119788 263.605469,105.953125 L263.605469,107.789062 C263.605469,107.867188 263.572917,108.055988 263.507812,108.355469 C263.442708,108.654949 263.371094,108.973957 263.292969,109.3125 C263.214843,109.651043 263.14974,109.970051 263.097656,110.269531 C263.045573,110.569012 263.019531,110.757812 263.019531,110.835938 L263.019531,115.132812 C262.837239,115.341147 262.746094,115.666664 262.746094,116.109375 C262.746094,116.317709 262.759114,116.50651 262.785156,116.675781 C262.811198,116.845053 262.824219,116.96875 262.824219,117.046875 L262.824219,118.453125 C262.824219,118.505209 262.856771,118.674478 262.921875,118.960938 C262.986979,119.247397 263.019531,119.416666 263.019531,119.46875 L263.019531,121.148438 C263.019531,121.200521 263.052083,121.324218 263.117188,121.519531 C263.182292,121.714845 263.240885,121.838541 263.292969,121.890625 C263.345052,121.96875 263.423177,122.118488 263.527344,122.339844 C263.631511,122.561199 263.742187,122.789061 263.859375,123.023438 C263.976563,123.257814 264.080729,123.479166 264.171875,123.6875 C264.263021,123.895834 264.321614,124.039062 264.347656,124.117188 C264.738283,124.169271 265.213539,124.266926 265.773438,124.410156 C266.333336,124.553386 266.880206,124.748697 267.414062,124.996094 C267.947919,125.243491 268.397134,125.555988 268.761719,125.933594 C269.126304,126.3112 269.308594,126.747393 269.308594,127.242188 C269.308594,127.450522 269.250001,127.671874 269.132812,127.90625 C269.015624,128.140626 268.859376,128.361978 268.664062,128.570312 C268.468749,128.778647 268.253907,128.947916 268.019531,129.078125 C267.785155,129.208334 267.563803,129.273438 267.355469,129.273438 L257.863281,129.273438 C257.186195,129.039061 256.457035,128.876303 255.675781,128.785156 C254.894527,128.69401 254.100264,128.648438 253.292969,128.648438 L252.042969,128.648438 C251.6263,128.648438 251.222658,128.674479 250.832031,128.726562 Z M283.527344,81.6953125 C283.527344,80.6796824 283.807289,79.6966193 284.367188,78.7460938 C284.927086,77.7955682 285.662756,77.0859398 286.574219,76.6171875 C286.678386,76.6171875 286.886717,76.6041668 287.199219,76.578125 C287.51172,76.5520832 287.837238,76.5260418 288.175781,76.5 C288.514325,76.4739582 288.839842,76.4544271 289.152344,76.4414062 C289.464845,76.4283854 289.686197,76.421875 289.816406,76.421875 C289.816406,76.3437496 289.855468,76.3046875 289.933594,76.3046875 C290.350262,76.3046875 290.708332,76.3893221 291.007812,76.5585938 C291.307293,76.7278654 291.574218,76.942707 291.808594,77.203125 C292.04297,77.463543 292.257812,77.7565088 292.453125,78.0820312 C292.648438,78.4075537 292.824218,78.7135402 292.980469,79 C293.058594,79.130209 293.143229,79.2799471 293.234375,79.4492188 C293.325521,79.6184904 293.416666,79.7942699 293.507812,79.9765625 L293.742188,80.4453125 C293.807292,80.5755215 293.839844,80.6536457 293.839844,80.6796875 C293.839844,80.7578129 293.852864,80.9986959 293.878906,81.4023438 C293.904948,81.8059916 293.917969,82.1119781 293.917969,82.3203125 C293.917969,83.1015664 293.800782,83.8502568 293.566406,84.5664062 C293.33203,85.2825557 292.986981,85.9205701 292.53125,86.4804688 C292.075519,87.0403674 291.528649,87.4895816 290.890625,87.828125 C290.252601,88.1666684 289.529952,88.3359375 288.722656,88.3359375 C288.644531,88.3359375 288.507813,88.3229168 288.3125,88.296875 C288.117187,88.2708332 287.954428,88.2578125 287.824219,88.2578125 C287.329425,87.7630184 286.828128,87.2812523 286.320312,86.8125 C285.812497,86.3437477 285.350262,85.8554713 284.933594,85.3476562 C284.516925,84.8398412 284.178387,84.2929717 283.917969,83.7070312 C283.657551,83.1210908 283.527344,82.4505246 283.527344,81.6953125 Z M280.324219,126.617188 C280.324219,126.148435 280.467446,125.751304 280.753906,125.425781 C281.040366,125.100259 281.378904,124.794272 281.769531,124.507812 C282.160158,124.221353 282.550779,123.928387 282.941406,123.628906 C283.332033,123.329426 283.631509,122.958336 283.839844,122.515625 C283.970053,122.203123 284.061198,121.877606 284.113281,121.539062 C284.165365,121.200519 284.191406,120.84896 284.191406,120.484375 C284.191406,120.145832 284.178386,119.820314 284.152344,119.507812 C284.126302,119.195311 284.113281,118.895835 284.113281,118.609375 L284.113281,118.179688 C284.113281,118.127604 284.158854,117.945314 284.25,117.632812 C284.341146,117.320311 284.386719,117.151042 284.386719,117.125 L284.386719,114.117188 C284.386719,114.091146 284.399739,114.000001 284.425781,113.84375 C284.451823,113.687499 284.484375,113.52474 284.523438,113.355469 C284.5625,113.186197 284.595052,113.023438 284.621094,112.867188 C284.647136,112.710937 284.660156,112.619792 284.660156,112.59375 C284.660156,112.515625 284.614584,112.320314 284.523438,112.007812 C284.432291,111.695311 284.386719,111.5 284.386719,111.421875 L284.386719,111.226562 C284.386719,111.174479 284.41276,111.070313 284.464844,110.914062 C284.516927,110.757812 284.56901,110.588543 284.621094,110.40625 C284.673177,110.223957 284.72526,110.054688 284.777344,109.898438 C284.829427,109.742187 284.855469,109.638021 284.855469,109.585938 C284.855469,109.559896 284.88151,109.358075 284.933594,108.980469 C284.985677,108.602863 285.011719,108.296876 285.011719,108.0625 C285.011719,107.33333 284.972657,106.656253 284.894531,106.03125 C284.816406,105.406247 284.555992,104.794274 284.113281,104.195312 C284.035156,104.117187 283.885418,103.941408 283.664062,103.667969 C283.442707,103.39453 283.214845,103.108074 282.980469,102.808594 C282.746093,102.509113 282.524741,102.235678 282.316406,101.988281 C282.108072,101.740884 281.990886,101.578125 281.964844,101.5 C281.964844,101.447916 281.88672,101.252606 281.730469,100.914062 C281.574218,100.575519 281.470052,100.315105 281.417969,100.132812 L281.417969,99.9375 C281.417969,99.7291656 281.496093,99.5208344 281.652344,99.3125 C281.808595,99.1041656 281.977864,98.9348965 282.160156,98.8046875 C282.680992,98.4401023 283.227862,98.0885434 283.800781,97.75 C284.373701,97.4114566 284.933591,97.1119805 285.480469,96.8515625 C285.532552,96.8515625 285.708332,96.8190107 286.007812,96.7539062 C286.307293,96.6888018 286.496093,96.6302086 286.574219,96.578125 L287.042969,96.34375 C287.303387,96.213541 287.576821,96.0703133 287.863281,95.9140625 C288.149741,95.7578117 288.423176,95.6080736 288.683594,95.4648438 C288.944012,95.3216139 289.113281,95.2369793 289.191406,95.2109375 C289.295573,95.2109375 289.503905,95.1979168 289.816406,95.171875 C290.128908,95.1458332 290.35026,95.1328125 290.480469,95.1328125 C290.610678,95.1328125 290.786457,95.1458332 291.007812,95.171875 C291.229168,95.1979168 291.365885,95.2109375 291.417969,95.2109375 L291.886719,96.0703125 C291.912761,96.0703125 291.938802,96.1874988 291.964844,96.421875 C291.990886,96.6562512 292.023437,96.9296859 292.0625,97.2421875 C292.101563,97.5546891 292.134114,97.8802066 292.160156,98.21875 C292.186198,98.5572934 292.212239,98.8437488 292.238281,99.078125 L292.238281,99.46875 C292.238281,99.7031262 292.225261,99.8919264 292.199219,100.035156 C292.173177,100.178386 292.069011,100.367186 291.886719,100.601562 C291.886719,100.783855 291.899739,101.083331 291.925781,101.5 C291.951823,101.916669 291.964844,102.385414 291.964844,102.90625 C291.964844,103.427086 291.951823,103.908852 291.925781,104.351562 C291.899739,104.794273 291.886719,105.10677 291.886719,105.289062 C291.886719,105.341146 291.860677,105.471353 291.808594,105.679688 C291.75651,105.888022 291.704427,106.109374 291.652344,106.34375 C291.60026,106.578126 291.548177,106.799478 291.496094,107.007812 C291.44401,107.216147 291.417969,107.333333 291.417969,107.359375 L291.417969,108.0625 C291.417969,108.34896 291.463541,108.589843 291.554688,108.785156 C291.645834,108.98047 291.736979,109.16276 291.828125,109.332031 C291.919271,109.501303 292.010416,109.664062 292.101562,109.820312 C292.192709,109.976563 292.238281,110.158853 292.238281,110.367188 C292.238281,110.809898 292.21224,111.278643 292.160156,111.773438 C292.108073,112.268232 291.925783,112.697915 291.613281,113.0625 C291.665365,113.34896 291.691406,113.628905 291.691406,113.902344 L291.691406,114.742188 C291.691406,115.445316 291.665365,116.154944 291.613281,116.871094 C291.561198,117.587243 291.496094,118.322913 291.417969,119.078125 C291.417969,119.104167 291.372396,119.266926 291.28125,119.566406 C291.190104,119.865887 291.144531,120.041666 291.144531,120.09375 L291.144531,121.148438 C291.144531,121.356772 291.157552,121.558593 291.183594,121.753906 C291.209636,121.94922 291.28776,122.111979 291.417969,122.242188 L294.933594,125.757812 C294.933594,125.809896 294.966146,125.940103 295.03125,126.148438 C295.096354,126.356772 295.154948,126.5 295.207031,126.578125 L295.207031,126.851562 C295.207031,127.11198 295.148438,127.385415 295.03125,127.671875 C294.914062,127.958335 294.751303,128.218749 294.542969,128.453125 C294.334634,128.687501 294.100262,128.882812 293.839844,129.039062 C293.579426,129.195313 293.29297,129.273438 292.980469,129.273438 L288.722656,129.273438 C288.462238,129.273438 288.052086,129.260417 287.492188,129.234375 C286.932289,129.208333 286.352868,129.175781 285.753906,129.136719 C285.154945,129.097656 284.595055,129.065104 284.074219,129.039062 C283.553383,129.013021 283.214845,129 283.058594,129 C282.27734,128.947916 281.626305,128.746096 281.105469,128.394531 C280.584633,128.042967 280.324219,127.450525 280.324219,126.617188 Z M300.441406,123.453125 L300.441406,122.515625 C300.441406,122.463541 300.51953,122.294272 300.675781,122.007812 C300.832032,121.721353 300.910156,121.552084 300.910156,121.5 C301.040365,121.187498 301.157552,120.84245 301.261719,120.464844 C301.365886,120.087238 301.489583,119.729168 301.632812,119.390625 C301.776042,119.052082 301.964843,118.765626 302.199219,118.53125 C302.433595,118.296874 302.772133,118.179688 303.214844,118.179688 L303.605469,118.179688 C303.683594,118.179688 303.78776,118.296874 303.917969,118.53125 C304.048178,118.765626 304.152343,118.947916 304.230469,119.078125 C304.569012,119.703128 304.940102,120.412756 305.34375,121.207031 C305.747398,122.001306 306.209633,122.736976 306.730469,123.414062 C307.251305,124.091149 307.863278,124.66406 308.566406,125.132812 C309.269535,125.601565 310.076818,125.835938 310.988281,125.835938 C311.326825,125.835938 311.756508,125.712241 312.277344,125.464844 C312.79818,125.217447 313.312497,124.924481 313.820312,124.585938 C314.328128,124.247394 314.783852,123.889325 315.1875,123.511719 C315.591148,123.134113 315.832031,122.802085 315.910156,122.515625 C316.014323,122.177082 316.105468,121.864585 316.183594,121.578125 C316.261719,121.291665 316.300781,120.992189 316.300781,120.679688 C316.300781,120.158852 316.170574,119.625003 315.910156,119.078125 C315.910156,118.765623 315.643232,118.33594 315.109375,117.789062 C314.575518,117.242185 313.957035,116.701826 313.253906,116.167969 C312.550778,115.634112 311.873701,115.145836 311.222656,114.703125 C310.571611,114.260414 310.128907,113.973959 309.894531,113.84375 C309.608071,113.739583 309.315106,113.68099 309.015625,113.667969 C308.716144,113.654948 308.462241,113.557293 308.253906,113.375 C308.253906,113.322916 308.195313,113.244792 308.078125,113.140625 C307.960937,113.036458 307.843751,112.925782 307.726562,112.808594 C307.609374,112.691406 307.492188,112.58073 307.375,112.476562 L307.199219,112.320312 C307.147135,112.216145 306.977866,112.066407 306.691406,111.871094 C306.404946,111.67578 306.209636,111.526042 306.105469,111.421875 L305.558594,111.148438 L303.410156,109 C303.227864,108.557289 303.078126,108.114586 302.960938,107.671875 C302.843749,107.229164 302.720053,106.77344 302.589844,106.304688 C302.563802,106.174479 302.518229,105.992189 302.453125,105.757812 C302.388021,105.523436 302.329427,105.295574 302.277344,105.074219 C302.22526,104.852863 302.173177,104.657553 302.121094,104.488281 C302.06901,104.31901 302.042969,104.221354 302.042969,104.195312 C301.990885,103.492184 302.042968,102.756514 302.199219,101.988281 C302.35547,101.220048 302.596353,100.484379 302.921875,99.78125 C303.247397,99.0781215 303.631508,98.420576 304.074219,97.8085938 C304.516929,97.1966115 305.011716,96.6953145 305.558594,96.3046875 C305.610677,96.2526039 305.753905,96.1940107 305.988281,96.1289062 C306.222657,96.0638018 306.378906,96.0052086 306.457031,95.953125 C306.847658,95.7968742 307.270831,95.5559912 307.726562,95.2304688 C308.182294,94.9049463 308.65755,94.5794287 309.152344,94.2539062 C309.647138,93.9283838 310.141925,93.6484387 310.636719,93.4140625 C311.131513,93.1796863 311.600258,93.0625 312.042969,93.0625 C312.485679,93.0625 312.993487,93.1601553 313.566406,93.3554688 C314.139326,93.5507822 314.621092,93.713541 315.011719,93.84375 C315.714847,94.0781262 316.391924,94.2994781 317.042969,94.5078125 C317.694014,94.7161469 318.273435,94.9895816 318.78125,95.328125 C319.289065,95.6666684 319.692707,96.0963516 319.992188,96.6171875 C320.291668,97.1380234 320.441406,97.8151 320.441406,98.6484375 C320.441406,98.9348973 320.408854,99.3450494 320.34375,99.8789062 C320.278646,100.412763 320.16797,100.933591 320.011719,101.441406 C319.855468,101.949221 319.634116,102.391925 319.347656,102.769531 C319.061196,103.147137 318.696617,103.335938 318.253906,103.335938 L318.019531,103.335938 C317.967448,103.283854 317.876303,103.101564 317.746094,102.789062 C317.615885,102.476561 317.52474,102.294271 317.472656,102.242188 C317.108071,101.591143 316.71094,100.966149 316.28125,100.367188 C315.85156,99.7682262 315.369794,99.2408877 314.835938,98.7851562 C314.302081,98.3294248 313.722659,97.9713555 313.097656,97.7109375 C312.472653,97.4505195 311.769535,97.3203125 310.988281,97.3203125 C310.753905,97.3203125 310.48047,97.3333332 310.167969,97.359375 C309.855467,97.3854168 309.582032,97.4765617 309.347656,97.6328125 C308.462235,98.3098992 307.791669,99.0260379 307.335938,99.78125 C306.880206,100.536462 306.652344,101.486973 306.652344,102.632812 C306.652344,103.257816 306.795571,103.824216 307.082031,104.332031 C307.368491,104.839846 307.733071,105.289061 308.175781,105.679688 C308.618492,106.070314 309.113279,106.408853 309.660156,106.695312 C310.207034,106.981772 310.740883,107.203124 311.261719,107.359375 C311.287761,107.385417 311.378905,107.411458 311.535156,107.4375 C311.691407,107.463542 311.867187,107.489583 312.0625,107.515625 C312.257813,107.541667 312.433593,107.567708 312.589844,107.59375 C312.746095,107.619792 312.837239,107.632812 312.863281,107.632812 C312.915365,107.632812 313.00651,107.678385 313.136719,107.769531 C313.266928,107.860678 313.358073,107.90625 313.410156,107.90625 C313.983076,108.322919 314.575518,108.733071 315.1875,109.136719 C315.799482,109.540367 316.398435,109.957029 316.984375,110.386719 C317.570315,110.816408 318.136716,111.278643 318.683594,111.773438 C319.230471,112.268232 319.725258,112.80208 320.167969,113.375 C320.194011,113.401042 320.246093,113.492187 320.324219,113.648438 C320.402344,113.804688 320.486979,113.980468 320.578125,114.175781 C320.669271,114.371095 320.753906,114.566405 320.832031,114.761719 C320.910157,114.957032 320.97526,115.10677 321.027344,115.210938 C321.027344,115.263021 321.033854,115.367187 321.046875,115.523438 C321.059896,115.679688 321.079427,115.848957 321.105469,116.03125 C321.131511,116.213543 321.164062,116.389322 321.203125,116.558594 C321.242188,116.727865 321.274739,116.825521 321.300781,116.851562 C321.404948,117.164064 321.535155,117.444009 321.691406,117.691406 C321.847657,117.938803 321.997395,118.179686 322.140625,118.414062 C322.283855,118.648439 322.407552,118.882811 322.511719,119.117188 C322.615886,119.351564 322.667969,119.624998 322.667969,119.9375 C322.667969,120.770837 322.485679,121.539059 322.121094,122.242188 C321.756509,122.945316 321.391929,123.687496 321.027344,124.46875 C320.6888,125.015628 320.246096,125.549477 319.699219,126.070312 C319.152341,126.591148 318.696616,127.020832 318.332031,127.359375 C317.290359,128.270838 316.092455,128.915363 314.738281,129.292969 C313.384108,129.670575 312.082037,129.859375 310.832031,129.859375 C309.894527,129.859375 308.944015,129.807292 307.980469,129.703125 C307.016922,129.598958 306.118494,129.364585 305.285156,129 C305.259114,128.973958 305.16797,128.915365 305.011719,128.824219 C304.855468,128.733072 304.679688,128.628907 304.484375,128.511719 C304.289062,128.394531 304.106772,128.283855 303.9375,128.179688 C303.768228,128.07552 303.657552,128.010417 303.605469,127.984375 C303.084633,127.671873 302.622398,127.391928 302.21875,127.144531 C301.815102,126.897134 301.483074,126.617189 301.222656,126.304688 C300.962238,125.992186 300.766928,125.614586 300.636719,125.171875 C300.50651,124.729164 300.441406,124.156254 300.441406,123.453125 Z M350.128906,129.273438 C349.946614,129.117187 349.738282,128.973959 349.503906,128.84375 C349.26953,128.713541 349.054688,128.576824 348.859375,128.433594 C348.664062,128.290364 348.501303,128.127605 348.371094,127.945312 C348.240885,127.76302 348.175781,127.528647 348.175781,127.242188 C348.175781,126.69531 348.299478,126.265627 348.546875,125.953125 C348.794272,125.640623 349.106769,125.412761 349.484375,125.269531 C349.861981,125.126301 350.272133,125.035156 350.714844,124.996094 C351.157554,124.957031 351.574217,124.911459 351.964844,124.859375 L352.550781,124.351562 L352.550781,117.046875 C352.498698,116.96875 352.440104,116.79297 352.375,116.519531 C352.309896,116.246092 352.277344,116.083334 352.277344,116.03125 C352.277344,115.953125 352.290364,115.777345 352.316406,115.503906 C352.342448,115.230467 352.368489,114.937502 352.394531,114.625 L352.472656,113.6875 C352.498698,113.374998 352.524739,113.140626 352.550781,112.984375 C352.550781,112.932291 352.596354,112.756512 352.6875,112.457031 C352.778646,112.157551 352.824219,111.95573 352.824219,111.851562 L352.824219,110.835938 C352.824219,110.757812 352.869791,110.582033 352.960938,110.308594 C353.052084,110.035155 353.097656,109.846355 353.097656,109.742188 L352.550781,103.53125 C352.290363,103.24479 352.04297,102.958335 351.808594,102.671875 C351.600259,102.437499 351.385418,102.196616 351.164062,101.949219 C350.942707,101.701822 350.753907,101.48698 350.597656,101.304688 C350.389322,101.04427 350.070315,100.842449 349.640625,100.699219 C349.210935,100.555989 348.755211,100.445313 348.273438,100.367188 C347.791664,100.289062 347.316409,100.24349 346.847656,100.230469 C346.378904,100.217448 345.988283,100.210938 345.675781,100.210938 C345.389321,100.210938 345.031252,100.217448 344.601562,100.230469 C344.171873,100.24349 343.917969,100.263021 343.839844,100.289062 C343.813802,100.289062 343.735678,100.315104 343.605469,100.367188 C343.47526,100.419271 343.338542,100.484375 343.195312,100.5625 C343.052083,100.640625 342.908855,100.705729 342.765625,100.757812 C342.622395,100.809896 342.52474,100.835938 342.472656,100.835938 C342.446614,100.835938 342.342449,100.848958 342.160156,100.875 C341.977864,100.901042 341.782553,100.920573 341.574219,100.933594 C341.365884,100.946615 341.170574,100.966146 340.988281,100.992188 C340.805989,101.018229 340.701823,101.03125 340.675781,101.03125 C340.623698,101.03125 340.565104,101.076822 340.5,101.167969 C340.434896,101.259115 340.376302,101.304688 340.324219,101.304688 C340.324219,101.408855 340.291667,101.604165 340.226562,101.890625 C340.161458,102.177085 340.102865,102.333333 340.050781,102.359375 C340.050781,102.4375 339.998698,102.502604 339.894531,102.554688 C339.842448,102.580729 339.803386,102.606771 339.777344,102.632812 C339.647135,102.867189 339.536459,103.153644 339.445312,103.492188 C339.354166,103.830731 339.269532,104.1888 339.191406,104.566406 C339.113281,104.944012 339.054688,105.315102 339.015625,105.679688 C338.976562,106.044273 338.957031,106.35677 338.957031,106.617188 C338.957031,106.929689 338.970052,107.190103 338.996094,107.398438 C339.022136,107.606772 339.126301,107.841145 339.308594,108.101562 C339.25651,108.388022 339.230469,108.850257 339.230469,109.488281 L339.230469,113.53125 C339.230469,114.182295 339.25651,114.624999 339.308594,114.859375 C339.308594,114.989584 339.328125,115.341143 339.367188,115.914062 C339.40625,116.486982 339.451823,117.131507 339.503906,117.847656 C339.55599,118.563806 339.608073,119.273434 339.660156,119.976562 C339.71224,120.679691 339.751302,121.226561 339.777344,121.617188 C339.855469,122.242191 339.933593,122.860674 340.011719,123.472656 C340.089844,124.084638 340.311196,124.66406 340.675781,125.210938 C340.753907,125.236979 340.890624,125.295572 341.085938,125.386719 C341.281251,125.477865 341.489582,125.582031 341.710938,125.699219 C341.932293,125.816407 342.140624,125.927083 342.335938,126.03125 C342.531251,126.135417 342.667968,126.226562 342.746094,126.304688 C342.98047,126.408855 343.097656,126.604165 343.097656,126.890625 L343.097656,127.242188 C343.097656,127.763023 342.97396,128.140624 342.726562,128.375 C342.479165,128.609376 342.173179,128.765625 341.808594,128.84375 C341.444009,128.921875 341.040367,128.960938 340.597656,128.960938 C340.154946,128.960938 339.725262,128.973958 339.308594,129 L338.214844,129 C338.110677,128.947916 337.915366,128.876303 337.628906,128.785156 C337.342446,128.69401 337.160157,128.648438 337.082031,128.648438 C336.873697,128.648438 336.580731,128.661458 336.203125,128.6875 C335.825519,128.713542 335.447919,128.746094 335.070312,128.785156 C334.692706,128.824219 334.354168,128.863281 334.054688,128.902344 C333.755207,128.941406 333.592448,128.973958 333.566406,129 C333.201821,129.052084 332.81771,129.097656 332.414062,129.136719 C332.010415,129.175781 331.626304,129.221354 331.261719,129.273438 L328.175781,129.273438 C327.993489,129.16927 327.811199,129.071615 327.628906,128.980469 C327.446614,128.889322 327.264324,128.778646 327.082031,128.648438 C326.847655,128.283852 326.730469,127.945314 326.730469,127.632812 C326.730469,127.294269 326.847655,126.94271 327.082031,126.578125 C327.082031,126.473958 327.186197,126.317709 327.394531,126.109375 C327.602866,125.901041 327.772135,125.757813 327.902344,125.679688 C328.162762,125.57552 328.520831,125.490886 328.976562,125.425781 C329.432294,125.360677 329.881508,125.263021 330.324219,125.132812 C330.766929,125.002604 331.15104,124.820314 331.476562,124.585938 C331.802085,124.351561 331.964844,124.000002 331.964844,123.53125 L331.964844,116.773438 C331.91276,116.66927 331.854167,116.48047 331.789062,116.207031 C331.723958,115.933592 331.691406,115.757813 331.691406,115.679688 C331.691406,115.627604 331.736979,115.497397 331.828125,115.289062 C331.919271,115.080728 331.964844,114.9375 331.964844,114.859375 L331.964844,114.46875 C331.964844,114.18229 331.951823,113.908855 331.925781,113.648438 C331.899739,113.38802 331.886719,113.140626 331.886719,112.90625 C331.886719,112.359372 331.990884,111.838544 332.199219,111.34375 L332.199219,105.953125 C332.06901,105.614582 331.997396,105.321616 331.984375,105.074219 C331.971354,104.826822 331.964844,104.533856 331.964844,104.195312 C331.964844,103.804686 332.010416,103.472658 332.101562,103.199219 C332.192709,102.92578 332.290364,102.678387 332.394531,102.457031 C332.498698,102.235676 332.596354,102.014324 332.6875,101.792969 C332.778646,101.571613 332.824219,101.31771 332.824219,101.03125 C332.824219,100.354163 332.765626,99.7161488 332.648438,99.1171875 C332.531249,98.5182262 332.472656,97.8932324 332.472656,97.2421875 C332.472656,96.6432262 332.531249,96.0638049 332.648438,95.5039062 C332.765626,94.9440076 332.824219,94.377607 332.824219,93.8046875 L332.824219,92.0859375 L332.765625,91.9296875 C332.726562,91.8255203 332.6875,91.7148443 332.648438,91.5976562 L332.53125,91.2460938 C332.492187,91.1289057 332.472656,91.0572918 332.472656,91.03125 L332.472656,85.953125 C332.472656,85.8489578 332.459636,85.5885437 332.433594,85.171875 C332.407552,84.7552063 332.375,84.3190127 332.335938,83.8632812 C332.296875,83.4075498 332.264323,82.9778666 332.238281,82.5742188 C332.212239,82.1705709 332.199219,81.9036465 332.199219,81.7734375 L332.199219,80.7578125 C332.199219,80.7057289 332.166667,80.614584 332.101562,80.484375 L331.964844,80.2109375 C331.756509,79.8723941 331.535157,79.5468766 331.300781,79.234375 C331.066405,78.9218734 330.740887,78.7005215 330.324219,78.5703125 C330.246093,78.5703125 330.102866,78.5377607 329.894531,78.4726562 C329.686197,78.4075518 329.464845,78.3424482 329.230469,78.2773438 C328.996093,78.2122393 328.781251,78.1536461 328.585938,78.1015625 C328.390624,78.0494789 328.253907,78.0104168 328.175781,77.984375 L327.433594,77.984375 C327.199218,77.984375 326.964845,77.9778646 326.730469,77.9648438 C326.496093,77.9518229 326.281251,77.9062504 326.085938,77.828125 C325.890624,77.7499996 325.734376,77.6328133 325.617188,77.4765625 C325.499999,77.3203117 325.441406,77.0989598 325.441406,76.8125 L325.441406,76.6171875 C325.467448,76.5390621 325.493489,76.4283861 325.519531,76.2851562 L325.597656,75.8554688 C325.623698,75.7122389 325.649739,75.5820318 325.675781,75.4648438 L325.714844,75.2890625 L325.949219,75.015625 C326.704431,74.8333324 327.446611,74.6835943 328.175781,74.5664062 C328.904952,74.4492182 329.62109,74.2343766 330.324219,73.921875 L330.597656,73.6484375 C330.623698,73.6223957 330.669271,73.6028646 330.734375,73.5898438 C330.799479,73.5768229 330.858073,73.5572918 330.910156,73.53125 L331.144531,73.453125 C331.196615,73.4270832 331.313801,73.3945314 331.496094,73.3554688 C331.678386,73.3164061 331.880207,73.2838543 332.101562,73.2578125 C332.322918,73.2317707 332.524739,73.2122396 332.707031,73.1992188 C332.889324,73.1861979 332.993489,73.1796875 333.019531,73.1796875 C333.097657,73.1276039 333.208333,73.0234383 333.351562,72.8671875 C333.494792,72.7109367 333.566406,72.6067711 333.566406,72.5546875 C333.983075,72.2161441 334.406248,72.0078129 334.835938,71.9296875 C335.265627,71.8515621 335.740883,71.8125 336.261719,71.8125 C336.626304,71.8125 337.036456,71.8450518 337.492188,71.9101562 C337.947919,71.9752607 338.266926,72.1901023 338.449219,72.5546875 C338.475261,72.7109383 338.527343,72.9713523 338.605469,73.3359375 C338.683594,73.7005227 338.768229,74.0911438 338.859375,74.5078125 C338.950521,74.9244812 339.035156,75.308592 339.113281,75.6601562 C339.191407,76.0117205 339.25651,76.2395828 339.308594,76.34375 C339.308594,76.473959 339.386718,76.6822902 339.542969,76.96875 C339.69922,77.2552098 339.777344,77.4374996 339.777344,77.515625 L339.777344,79.078125 C339.777344,79.1302086 339.744792,79.2734363 339.679688,79.5078125 C339.614583,79.7421887 339.582031,79.8854164 339.582031,79.9375 C339.503906,80.5104195 339.438802,81.0312477 339.386719,81.5 C339.334635,81.9687523 339.295573,82.4179666 339.269531,82.8476562 C339.243489,83.2773459 339.230469,83.7265602 339.230469,84.1953125 L339.230469,85.7578125 C339.230469,85.8619797 339.236979,86.0442695 339.25,86.3046875 C339.263021,86.5651055 339.269531,86.8515609 339.269531,87.1640625 C339.269531,87.4765641 339.276042,87.7760402 339.289062,88.0625 C339.302083,88.3489598 339.308594,88.5442703 339.308594,88.6484375 C339.438803,88.9609391 339.516927,89.2669256 339.542969,89.5664062 C339.569011,89.8658869 339.582031,90.1979148 339.582031,90.5625 L339.582031,92.90625 C339.529948,93.0104172 339.425782,93.1992174 339.269531,93.4726562 C339.11328,93.7460951 339.009115,93.947916 338.957031,94.078125 L338.957031,94.546875 C338.983073,94.6250004 339.035156,94.7682281 339.113281,94.9765625 C339.191407,95.1848969 339.276041,95.4192695 339.367188,95.6796875 C339.458334,95.9401055 339.542968,96.1940092 339.621094,96.4414062 C339.699219,96.6888033 339.751302,96.8645828 339.777344,96.96875 C339.855469,97.1250008 339.907552,97.2486975 339.933594,97.3398438 C339.959636,97.43099 339.998698,97.4960936 340.050781,97.5351562 C340.102865,97.5742189 340.174479,97.59375 340.265625,97.59375 L340.949219,97.59375 C341.079428,97.59375 341.144531,97.5677086 341.144531,97.515625 L343.371094,95.40625 C344.542975,95.3020828 345.669265,95.1328137 346.75,94.8984375 C347.830735,94.6640613 348.930984,94.546875 350.050781,94.546875 C350.597659,94.546875 351.203122,94.5598957 351.867188,94.5859375 C352.531253,94.6119793 353.123695,94.6901035 353.644531,94.8203125 C353.696615,94.8203125 353.80078,94.8593746 353.957031,94.9375 C354.113282,95.0156254 354.282551,95.1067703 354.464844,95.2109375 C354.647136,95.3151047 354.816405,95.4062496 354.972656,95.484375 C355.128907,95.5625004 355.220052,95.6015625 355.246094,95.6015625 C355.272136,95.6015625 355.337239,95.6145832 355.441406,95.640625 C355.545573,95.6666668 355.656249,95.6992186 355.773438,95.7382812 C355.890626,95.7773439 356.007812,95.8098957 356.125,95.8359375 C356.242188,95.8619793 356.313802,95.875 356.339844,95.875 C356.522136,95.9791672 356.678385,96.0638018 356.808594,96.1289062 C356.938803,96.1940107 357.055989,96.3177074 357.160156,96.5 C357.4987,96.890627 357.843748,97.2877584 358.195312,97.6914062 C358.546877,98.0950541 358.872394,98.518227 359.171875,98.9609375 C359.471356,99.403648 359.718749,99.8723934 359.914062,100.367188 C360.109376,100.861982 360.207031,101.39583 360.207031,101.96875 C360.207031,102.515628 360.174479,103.082028 360.109375,103.667969 C360.044271,104.253909 359.959636,104.82031 359.855469,105.367188 C359.855469,105.393229 359.809896,105.484374 359.71875,105.640625 C359.627604,105.796876 359.582031,105.901041 359.582031,105.953125 L359.582031,106.421875 C359.608073,106.473959 359.634114,106.597655 359.660156,106.792969 C359.686198,106.988282 359.712239,107.404945 359.738281,108.042969 C359.764323,108.680993 359.790364,109.631504 359.816406,110.894531 C359.842448,112.157558 359.855469,113.869781 359.855469,116.03125 C359.855469,116.083334 359.809896,116.239582 359.71875,116.5 C359.627604,116.760418 359.582031,116.942708 359.582031,117.046875 L359.582031,121.421875 C359.529948,121.473959 359.471354,121.604166 359.40625,121.8125 C359.341146,122.020834 359.308594,122.138021 359.308594,122.164062 C359.308594,122.26823 359.334635,122.430988 359.386719,122.652344 C359.438802,122.873699 359.490885,123.101561 359.542969,123.335938 C359.595052,123.570314 359.653646,123.785155 359.71875,123.980469 C359.783854,124.175782 359.829427,124.299479 359.855469,124.351562 C359.907552,124.429688 359.998697,124.540364 360.128906,124.683594 C360.259115,124.826824 360.395833,124.976562 360.539062,125.132812 C360.682292,125.289063 360.81901,125.41927 360.949219,125.523438 C361.079428,125.627605 361.170573,125.679688 361.222656,125.679688 L364.269531,126.304688 L364.40625,126.421875 C364.497396,126.5 364.601562,126.597656 364.71875,126.714844 L365.324219,127.320312 C365.376302,127.42448 365.434896,127.567707 365.5,127.75 C365.565104,127.932293 365.597656,128.07552 365.597656,128.179688 C365.597656,128.388022 365.539063,128.557291 365.421875,128.6875 C365.304687,128.817709 365.154949,128.921875 364.972656,129 C364.790364,129.078125 364.608074,129.136719 364.425781,129.175781 C364.243489,129.214844 364.100261,129.247396 363.996094,129.273438 C363.683592,129.273438 363.149743,129.286458 362.394531,129.3125 C361.639319,129.338542 360.845056,129.371094 360.011719,129.410156 C359.178381,129.449219 358.390629,129.481771 357.648438,129.507812 C356.906246,129.533854 356.404949,129.546875 356.144531,129.546875 L355.519531,129.546875 L355.363281,129.507812 C355.259114,129.481771 355.148438,129.449219 355.03125,129.410156 C354.914062,129.371094 354.796876,129.338542 354.679688,129.3125 C354.562499,129.286458 354.490886,129.273438 354.464844,129.273438 C354.282551,129.273438 353.996096,129.260417 353.605469,129.234375 C353.214842,129.208333 352.772138,129.195312 352.277344,129.195312 C351.808591,129.195312 351.378908,129.208333 350.988281,129.234375 C350.597654,129.260417 350.311199,129.273438 350.128906,129.273438 Z" id="Perish" fill="url(#linearGradient-1)"></path>
            </g>
        </g>
    </g>
</svg>