<?xml version="1.0" encoding="UTF-8"?>
<svg width="79px" height="79px" viewBox="0 0 79 79" version="1.1" xmlns="http://www.w3.org/2000/svg" xmlns:xlink="http://www.w3.org/1999/xlink">
    <!-- Generator: Sketch 49 (51002) - http://www.bohemiancoding.com/sketch -->
    <title>logo_demo</title>
    <desc>Created with Sketch.</desc>
    <defs>
        <rect id="path-1" x="0" y="0" width="79" height="79"></rect>
        <linearGradient x1="50%" y1="0%" x2="50%" y2="100%" id="linearGradient-2">
            <stop stop-color="#FF0017" offset="0%"></stop>
            <stop stop-color="#9A0118" offset="100%"></stop>
        </linearGradient>
    </defs>
    <g id="logo_demo" stroke="none" stroke-width="1" fill="none" fill-rule="evenodd">
        <g id="Rectangle-8">
            <use fill="#FFFFFF" fill-rule="evenodd" xlink:href="#path-1"></use>
            <rect stroke="#000000" stroke-width="2" x="1" y="1" width="77" height="77"></rect>
        </g>
        <text id="P" font-family="AGaramondPro-Regular, Adobe Garamond Pro" font-size="55" font-weight="normal" fill="#191919">
            <tspan x="12" y="54">P</tspan>
        </text>
        <path d="M45.4541948,45.3488372 C45.9685014,45.3901811 46.4982294,45.4625318 47.0433944,45.5658915 C47.5885595,45.6692512 48.1182874,45.7209302 48.632594,45.7209302 L48.9411765,45.7209302 C49.0028933,45.6589144 49.1006101,45.5555563 49.2343298,45.4108527 C49.3680495,45.2661491 49.5171962,45.1162798 49.6817743,44.9612403 C49.8463525,44.8062008 49.9954992,44.6614994 50.1292189,44.5271318 L50.4223722,44.2325581 C50.4635168,44.2325581 50.6178064,44.1447037 50.8852459,43.9689922 C51.1526854,43.7932808 51.3584049,43.6640831 51.5024108,43.5813953 C51.6875612,43.4987076 51.9447107,43.3746778 52.2738669,43.2093023 C52.6030232,43.0439268 52.8601727,42.8785538 53.045323,42.7131783 C53.1687566,42.5891467 53.3641902,42.3875983 53.6316297,42.1085271 C53.8990692,41.829456 54.1665046,41.5452211 54.4339441,41.255814 C54.7013835,40.9664068 54.943104,40.6925078 55.1591128,40.4341085 C55.3751216,40.1757093 55.5036964,40.0051684 55.5448409,39.9224806 C55.8739971,39.4883699 56.1465756,38.9974188 56.3625844,38.4496124 C56.5785932,37.901806 56.7380258,37.3333363 56.8408872,36.744186 C56.9437485,36.1550358 57.0157504,35.5710623 57.0568949,34.9922481 C57.0980394,34.4134338 57.1186114,33.8759715 57.1186114,33.379845 C57.1186114,33.028422 57.0157516,32.7183476 56.8100289,32.4496124 C56.6043063,32.1808772 56.4191586,31.8708028 56.2545805,31.5193798 C56.213436,31.4987079 56.1671491,31.4211893 56.1157184,31.2868217 C56.0642878,31.1524541 56.0025719,31.0129206 55.9305689,30.8682171 C55.858566,30.7235135 55.7865642,30.5891479 55.7145612,30.4651163 C55.6425583,30.3410847 55.5859854,30.2790698 55.5448409,30.2790698 C55.5448409,30.196382 55.4574101,30.0671843 55.2825458,29.8914729 L54.9585342,29.5658915 C54.9585342,29.5452195 54.9276763,29.4728688 54.8659595,29.3488372 C54.8042427,29.2248056 54.7373838,29.0852721 54.6653809,28.9302326 C54.593378,28.775193 54.5213761,28.6356595 54.4493732,28.5116279 C54.3773703,28.3875963 54.3207974,28.3152456 54.2796528,28.2945736 C54.2796528,28.2739017 54.228223,28.2273905 54.1253616,28.1550388 C54.0225003,28.082687 53.9042115,28.0000005 53.7704918,27.9069767 C53.6367721,27.813953 53.5030543,27.7260986 53.3693346,27.6434109 C53.2356149,27.5607231 53.1276121,27.4883724 53.045323,27.4263566 C53.0041785,27.3850127 52.9218907,27.3385016 52.7984571,27.2868217 C52.6750235,27.2351419 52.6030216,27.2093023 52.5824494,27.2093023 C52.5618771,27.1886304 52.5207332,27.1317834 52.4590164,27.0387597 L52.2738669,26.7596899 C52.2121501,26.6666662 52.1504343,26.5788118 52.0887175,26.496124 C52.0270007,26.4134363 51.9961427,26.3617572 51.9961427,26.3410853 C51.9549982,26.3410853 51.9035683,26.3100778 51.8418515,26.248062 C51.8212792,26.2273901 51.8007073,26.1963826 51.780135,26.1550388 C51.7184182,26.1343668 51.6155584,26.1033594 51.4715526,26.0620155 C51.3275467,26.0206716 51.173257,25.9741605 51.0086789,25.9224806 C50.8441008,25.8708008 50.6846681,25.8242896 50.5303761,25.7829457 C50.3760841,25.7416019 50.2680813,25.7209302 50.2063645,25.7209302 C50.1857922,25.7209302 50.1137904,25.7105944 49.9903568,25.6899225 C49.8669232,25.6692505 49.7332055,25.643411 49.5891996,25.6124031 C49.4451938,25.5813952 49.311476,25.5555557 49.1880424,25.5348837 C49.0646088,25.5142118 48.982321,25.503876 48.9411765,25.503876 C48.9000319,25.483204 48.8074581,25.4521966 48.6634523,25.4108527 C48.5194464,25.3695088 48.3651567,25.3178298 48.2005786,25.255814 C48.0360005,25.1937981 47.8765678,25.1421191 47.7222758,25.1007752 C47.5679838,25.0594313 47.470267,25.0284239 47.4291225,25.0077519 L46.8119576,25.0077519 C46.770813,25.0697678 46.6885252,25.1886296 46.5650916,25.3643411 C46.441658,25.5400526 46.3079403,25.7209293 46.1639344,25.9069767 C46.0199286,26.0930242 45.8810678,26.268733 45.7473481,26.4341085 C45.6136284,26.599484 45.5159116,26.713178 45.4541948,26.7751938 C45.4130503,26.8578816 45.3616204,26.9560718 45.2999036,27.0697674 C45.2381868,27.1834631 45.1764709,27.302325 45.1147541,27.4263566 L44.8678881,27.8604651 L44.8678881,31.7054264 C44.6621655,32.0981932 44.5233048,32.5219616 44.4513018,32.9767442 C44.3792989,33.4315268 44.343298,33.8863026 44.343298,34.3410853 L44.343298,34.8992248 C44.343298,35.0852722 44.3638699,35.2609811 44.4050145,35.4263566 C44.3638699,35.4677005 44.2970111,35.5658907 44.2044359,35.7209302 C44.1118607,35.8759698 44.0552878,35.97416 44.0347155,36.0155039 L44.0347155,36.4806202 C44.0347155,36.7080115 44.0501445,37.012918 44.0810029,37.3953488 C44.1118613,37.7777797 44.1375762,38.149869 44.1581485,38.5116279 C44.1787208,38.8733868 44.1992927,39.1937971 44.219865,39.4728682 C44.2404373,39.7519394 44.2507232,39.9018087 44.2507232,39.9224806 C44.2507232,39.9638245 44.2712952,40.0413431 44.3124397,40.1550388 C44.3535843,40.2687344 44.3998712,40.3979321 44.4513018,40.5426357 C44.5027325,40.6873392 44.5490194,40.8217048 44.5901639,40.9457364 C44.6313085,41.0697681 44.6621664,41.1421188 44.6827387,41.1627907 L44.6827387,42.9302326 C44.6827387,42.9715764 44.6467377,43.0387592 44.5747348,43.1317829 C44.5027319,43.2248067 44.446159,43.3229969 44.4050145,43.4263566 C44.4050145,43.4470285 44.3432986,43.5400509 44.219865,43.7054264 C44.0964314,43.8708019 44.0347155,43.97416 44.0347155,44.0155039 L44.0347155,44.2325581 C44.0347155,44.2532301 44.0655735,44.2945733 44.1272903,44.3565891 L44.2507232,44.4806202 C44.2712955,44.4806202 44.3741553,44.4392769 44.5593057,44.3565891 C44.7444561,44.2739014 44.8473159,44.2325581 44.8678881,44.2325581 C45.1558999,44.2325581 45.2999036,44.3565879 45.2999036,44.6046512 C45.2999036,44.6873389 45.2947606,44.7545217 45.2844744,44.8062016 C45.2741883,44.8578814 45.2690453,44.9250642 45.2690453,45.0077519 C45.2690453,45.1937994 45.3307612,45.3074933 45.4541948,45.3488372 Z M32.2160077,63.3643411 C32.1954354,63.2816533 32.2622943,63.1472878 32.4165863,62.9612403 C32.5708783,62.7751929 32.7611689,62.5943161 32.9874638,62.4186047 C33.2137588,62.2428932 33.4400503,62.0826881 33.6663452,61.9379845 C33.8926402,61.7932809 34.0572158,61.7209302 34.1600771,61.7209302 C34.2217939,61.7002583 34.3555117,61.6795867 34.5612343,61.6589147 C34.766957,61.6382428 34.9881055,61.6175712 35.2246866,61.5968992 C35.4612677,61.5762273 35.6824162,61.5555557 35.8881389,61.5348837 C36.0938615,61.5142118 36.2275792,61.503876 36.289296,61.503876 C36.3304406,61.4625321 36.4590153,61.3643419 36.6750241,61.2093023 C36.8910329,61.0542628 37.0504656,60.9354009 37.1533269,60.8527132 C37.1738992,60.7906974 37.245901,60.7080109 37.3693346,60.6046512 C37.4927682,60.5012915 37.575056,60.418605 37.6162006,60.3565891 C37.6162006,60.2739014 37.6213436,60.1240321 37.6316297,59.9069767 C37.6419158,59.6899214 37.6573448,59.4521977 37.6779171,59.1937984 C37.6984893,58.9353992 37.7242043,58.6925076 37.7550627,58.4651163 C37.7859211,58.237725 37.811636,58.0826878 37.8322083,58 C37.8322083,57.9793281 37.8527803,57.8863057 37.8939248,57.7209302 C37.9350693,57.5555547 37.9762132,57.374678 38.0173578,57.1782946 C38.0585023,56.9819112 38.0996462,56.7958665 38.1407907,56.620155 C38.1819353,56.4444436 38.2025072,56.3359175 38.2025072,56.2945736 L38.2025072,56.1705426 C38.2025072,55.8604636 38.1407914,55.5503891 38.0173578,55.2403101 C37.8939242,54.930231 37.8322083,54.599485 37.8322083,54.248062 C37.8322083,53.8139513 37.8939242,53.3798471 38.0173578,52.9457364 C38.1407914,52.5116257 38.2025072,52.0568499 38.2025072,51.5813953 L38.2025072,51.3023256 C38.2025072,51.2196378 38.1922213,50.9560746 38.171649,50.5116279 C38.1510767,50.0671812 38.1253618,49.5917338 38.0945034,49.0852713 C38.063645,48.5788088 38.03793,48.1033614 38.0173578,47.6589147 C37.9967855,47.2144681 37.9864995,46.9302332 37.9864995,46.8062016 L37.9864995,46.4031008 C37.9864995,46.2170533 38.0327864,46.0310087 38.1253616,45.8449612 C38.2179368,45.6589138 38.3259396,45.4780371 38.4493732,45.3023256 C38.5728068,45.1266141 38.6808096,44.9405695 38.7733848,44.744186 C38.86596,44.5478026 38.9122469,44.3359184 38.9122469,44.1085271 C38.9122469,43.9224797 38.86596,43.7260992 38.7733848,43.5193798 C38.6808096,43.3126605 38.6345227,43.11628 38.6345227,42.9302326 C38.6345227,42.6614974 38.7065245,42.4134378 38.8505304,42.1860465 C38.9945362,41.9586552 39.0665381,41.7105957 39.0665381,41.4418605 C39.0665381,41.0077498 39.0048222,40.4806233 38.8813886,39.8604651 C38.757955,39.240307 38.6962392,38.6718372 38.6962392,38.1550388 C38.6550946,37.9689913 38.6345227,37.6485811 38.6345227,37.1937984 L38.6345227,34.2635659 C38.6345227,33.7984473 38.6550946,33.4728691 38.6962392,33.2868217 C38.531661,33.0387584 38.4082293,32.7648594 38.3259402,32.4651163 C38.2436511,32.1653732 38.2025072,31.8811383 38.2025072,31.6124031 L38.2025072,31.5193798 C38.2230795,31.4987079 38.2539374,31.4315251 38.295082,31.3178295 C38.3362265,31.2041338 38.3876564,31.0852719 38.4493732,30.9612403 C38.51109,30.8372087 38.5625199,30.7235147 38.6036644,30.620155 C38.6448089,30.5167953 38.6756669,30.4547805 38.6962392,30.4341085 L38.6962392,29.3178295 C38.6962392,28.801031 38.6242373,28.2842403 38.4802314,27.7674419 C38.3362256,27.2506434 38.0482182,26.8475467 37.6162006,26.5581395 C37.5133392,26.5581395 37.3436206,26.5374679 37.1070395,26.496124 C36.8704585,26.4547802 36.628738,26.4134369 36.3818708,26.372093 C36.1350036,26.3307491 35.8984261,26.2894059 35.6721311,26.248062 C35.4458362,26.2067181 35.2915465,26.1757107 35.2092575,26.1550388 C35.1886852,26.1136949 35.0961114,26.0568479 34.9315333,25.9844961 C34.7669551,25.9121443 34.6640954,25.875969 34.6229508,25.875969 C34.5818063,25.875969 34.4583745,25.8863048 34.2526519,25.9069767 C34.0469292,25.9276487 33.8514956,25.9379845 33.6663452,25.9379845 C33.4606226,25.9379845 33.3371908,25.9173129 33.2960463,25.875969 C33.1314682,25.8552971 32.9720355,25.7829464 32.8177435,25.6589147 C32.6634515,25.5348831 32.5245908,25.3901817 32.4011572,25.2248062 C32.2777236,25.0594307 32.1800068,24.8837219 32.1080039,24.6976744 C32.0360009,24.511627 32,24.346254 32,24.2015504 C32,23.9534871 32.0617159,23.7157634 32.1851495,23.4883721 C32.3085831,23.2609808 32.4628727,23.0594324 32.6480231,22.8837209 C32.8331735,22.7080095 33.0388931,22.568476 33.265188,22.4651163 C33.491483,22.3617566 33.7177745,22.2997417 33.9440694,22.2790698 C34.0057862,22.2583978 34.1755049,22.2377262 34.4532305,22.2170543 C34.7309561,22.1963823 35.0446784,22.1705428 35.3944069,22.1395349 C35.7441355,22.108527 36.0835728,22.0826874 36.412729,22.0620155 C36.7418853,22.0413436 36.9887488,22.0206719 37.1533269,22 L38.2025072,22 C38.264224,22.0206719 38.4133707,22.0465115 38.6499518,22.0775194 C38.8865328,22.1085273 39.1385393,22.1395347 39.4059788,22.1705426 C39.6734182,22.2015505 39.9254247,22.2273901 40.1620058,22.248062 C40.3985868,22.268734 40.5477335,22.2790698 40.6094503,22.2790698 L47.7068467,22.2790698 C47.7479912,22.2790698 47.871423,22.3152451 48.0771456,22.3875969 C48.2828683,22.4599487 48.426872,22.496124 48.509161,22.496124 L48.632594,22.496124 C49.0028948,22.496124 49.3320461,22.4496129 49.6200579,22.3565891 C49.9080696,22.2635654 50.2886508,22.2170543 50.7618129,22.2170543 C50.9263911,22.2170543 51.1578256,22.2273901 51.4561234,22.248062 C51.7544213,22.268734 51.9344259,22.2790698 51.9961427,22.2790698 C52.016715,22.2790698 52.1401467,22.3152451 52.3664417,22.3875969 C52.5927366,22.4599487 52.7470263,22.496124 52.8293153,22.496124 C53.1996161,22.5374679 53.6264842,22.5736433 54.1099325,22.6046512 C54.5933808,22.6356591 55.0099629,22.7235135 55.3596914,22.8682171 C56.1414375,23.1576242 56.8563131,23.498706 57.5043394,23.8914729 C58.1523658,24.2842397 58.8055255,24.7493513 59.463838,25.2868217 C59.8752833,25.5969008 60.3175804,26.0671803 60.7907425,26.6976744 C61.2639046,27.3281685 61.7113447,28.0155002 62.1330762,28.7596899 C62.5548076,29.5038797 62.9199599,30.2532262 63.2285439,31.0077519 C63.5371279,31.7622777 63.7222755,32.4289377 63.7839923,33.0077519 L63.7839923,34.3410853 C63.7839923,34.3824291 63.8199932,34.5167947 63.8919961,34.744186 C63.9639991,34.9715774 64,35.1059429 64,35.1472868 L64,35.4263566 C63.8559941,36.1912183 63.6965615,36.9457327 63.5216972,37.6899225 C63.3468329,38.4341122 63.1308274,39.1627871 62.8736741,39.875969 C62.6165207,40.5891509 62.2976554,41.2764825 61.9170685,41.9379845 C61.5364815,42.5994865 61.0684695,43.2196353 60.5130183,43.7984496 L60.4358727,43.875969 C60.384442,43.9276488 60.3227262,43.9793279 60.2507232,44.0310078 C60.1787203,44.0826876 60.1067185,44.1291988 60.0347155,44.1705426 C59.9627126,44.2118865 59.9164257,44.2325581 59.8958534,44.2325581 C59.8547089,44.2532301 59.7621351,44.3565882 59.6181292,44.5426357 C59.4741234,44.7286831 59.3095477,44.9353994 59.1243973,45.1627907 C58.9392469,45.390182 58.7540993,45.6227378 58.5689489,45.8604651 C58.3837985,46.0981924 58.2500808,46.2790691 58.1677917,46.4031008 C58.1266472,46.4444447 58.0443593,46.5478028 57.9209257,46.7131783 C57.7974922,46.8785538 57.7357763,46.9819119 57.7357763,47.0232558 C57.2831864,47.0439278 56.9231772,47.0697673 56.6557377,47.1007752 C56.3882982,47.1317831 56.1105768,47.2609808 55.8225651,47.4883721 C55.5756979,47.6124037 55.2774045,47.7416014 54.927676,47.875969 C54.5779475,48.0103366 54.2127952,48.1291984 53.8322083,48.2325581 C53.4516214,48.3359178 53.0761831,48.4186043 52.7058824,48.4806202 C52.3355816,48.542636 52.0064302,48.5736434 51.7184185,48.5736434 C51.1835396,48.5736434 50.6795266,48.4754532 50.2063645,48.2790698 C49.7332024,48.0826864 49.2600474,47.9431529 48.7868852,47.8604651 L47.8611379,47.8604651 C47.4496926,47.8191212 47.0896833,47.7002594 46.7810993,47.503876 C46.4725153,47.3074926 46.1022201,47.2093023 45.6702025,47.2093023 L45.4233365,47.2093023 C45.2587584,47.2093023 45.0838968,47.229974 44.8987464,47.2713178 C44.713596,47.3126617 44.5490203,47.3850124 44.4050145,47.4883721 C44.4050145,47.5503879 44.3895855,47.653746 44.3587271,47.7984496 C44.3278687,47.9431532 44.2867248,48.0930225 44.2352941,48.248062 C44.1838635,48.4031016 44.1375765,48.5478029 44.096432,48.6821705 C44.0552875,48.8165381 44.0347155,48.9043926 44.0347155,48.9457364 C44.0141433,48.9870803 43.9832853,49.0645989 43.9421408,49.1782946 C43.9009963,49.2919902 43.8547094,49.4056842 43.8032787,49.5193798 C43.751848,49.6330755 43.7055611,49.7416016 43.6644166,49.8449612 L43.6027001,50 C43.5615556,50 43.5409836,50.0413433 43.5409836,50.124031 L43.5409836,50.3565891 C43.5409836,50.408269 43.5615556,50.4547802 43.6027001,50.496124 C43.6027001,50.5374679 43.6747019,50.6718335 43.8187078,50.8992248 C43.9627137,51.1266161 44.0347155,51.2609817 44.0347155,51.3023256 C44.0347155,51.3436695 44.0501445,51.4315239 44.0810029,51.5658915 C44.1118613,51.7002591 44.1375762,51.8449605 44.1581485,52 C44.1787208,52.1550395 44.1992927,52.294573 44.219865,52.4186047 C44.2404373,52.5426363 44.2507232,52.614987 44.2507232,52.6356589 L44.4050145,53.0697674 L44.4975892,53.2248062 C44.4975892,53.4935414 44.4307303,53.7984479 44.2970106,54.1395349 C44.1632909,54.4806219 44.0758601,54.7648567 44.0347155,54.9922481 C44.0141433,55.0335919 43.9832853,55.1162784 43.9421408,55.2403101 C43.9009963,55.3643417 43.8547094,55.4987073 43.8032787,55.6434109 C43.751848,55.7881144 43.7055611,55.92248 43.6644166,56.0465116 C43.6232721,56.1705433 43.6027001,56.2532298 43.6027001,56.2945736 C43.6027001,56.3565895 43.6232721,56.490955 43.6644166,56.6976744 C43.7055611,56.9043938 43.751848,57.1317817 43.8032787,57.379845 C43.8547094,57.6279082 43.9009963,57.860464 43.9421408,58.0775194 C43.9832853,58.2945747 44.0141433,58.4341082 44.0347155,58.496124 C44.0964323,58.7855312 44.1375762,59.0852698 44.1581485,59.3953488 C44.1787208,59.7054279 44.2250077,60.0155023 44.2970106,60.3255814 C44.3690135,60.6356605 44.4821593,60.9250633 44.6364513,61.1937984 C44.7907433,61.4625336 45.0118918,61.7002574 45.2999036,61.9069767 C45.3821926,61.9689926 45.5364823,62.0516791 45.7627772,62.1550388 C45.9890722,62.2583984 46.1227899,62.3100775 46.1639344,62.3100775 L48.9411765,62.3100775 C49.0440378,62.3100775 49.2086135,62.3875961 49.4349084,62.5426357 C49.6612033,62.6976752 49.8823519,62.873384 50.0983607,63.0697674 C50.3143695,63.2661509 50.5046601,63.4470276 50.6692382,63.6124031 C50.8338163,63.7777786 50.9161041,63.8708009 50.9161041,63.8914729 L50.9161041,64.0775194 C50.751526,64.3669265 50.6023793,64.6046502 50.4686596,64.7906977 C50.3349399,64.9767451 50.1909362,65.1369502 50.0366442,65.2713178 C49.8823522,65.4056854 49.7074905,65.5090436 49.512054,65.5813953 C49.3166175,65.6537471 49.074897,65.7209299 48.7868852,65.7829457 C48.6017349,65.7829457 48.2880125,65.7726099 47.8457088,65.751938 C47.4034051,65.731266 46.945679,65.7209302 46.4725169,65.7209302 C45.9993548,65.7209302 45.5519147,65.731266 45.1301832,65.751938 C44.7084518,65.7726099 44.4153014,65.7829457 44.2507232,65.7829457 C44.1478619,65.7829457 43.9575713,65.8087853 43.6798457,65.8604651 C43.4021201,65.912145 43.2324015,65.9586561 43.1706847,66 L35.8572806,66 C35.5898412,65.8139526 35.3429777,65.7209302 35.1166827,65.7209302 C35.0138214,65.7209302 34.9109616,65.731266 34.8081003,65.751938 C34.705239,65.7726099 34.5715212,65.7829457 34.4069431,65.7829457 L34.1600771,65.7829457 C33.5429092,65.679586 33.0800401,65.405687 32.7714561,64.9612403 C32.4628721,64.5167936 32.2777245,63.9844992 32.2160077,63.3643411 Z" id="Perish" fill="url(#linearGradient-2)"></path>
        <g id="Group" transform="translate(21.901281, 21.901281) rotate(-45.000000) translate(-21.901281, -21.901281) translate(-33.098719, 13.401281)">
            <rect id="Rectangle-4" fill="#CD1602" x="0" y="0" width="109.124892" height="16.3492424"></rect>
            <text id="demo" font-family="AGaramondPro-Bold, Adobe Garamond Pro" font-size="12" font-weight="bold" fill="#191919">
                <tspan x="42.326" y="12">demo</tspan>
            </text>
        </g>
    </g>
</svg>