<?xml version="1.0" encoding="UTF-8"?>
<svg width="79px" height="92px" viewBox="0 0 79 92" version="1.1" xmlns="http://www.w3.org/2000/svg" xmlns:xlink="http://www.w3.org/1999/xlink">
    <!-- Generator: Sketch 48.2 (47327) - http://www.bohemiancoding.com/sketch -->
    <title>logo_50</title>
    <desc>Created with Sketch.</desc>
    <defs>
        <rect id="path-1" x="0" y="0" width="79" height="79"></rect>
    </defs>
    <g id="Symbols" stroke="none" stroke-width="1" fill="none" fill-rule="evenodd">
        <g id="logo_50">
            <g id="Rectangle-8">
                <use fill="#FFFFFF" fill-rule="evenodd" xlink:href="#path-1"></use>
                <rect stroke="#000000" stroke-width="2" x="1" y="1" width="77" height="77"></rect>
            </g>
            <text id="P" font-family="AGaramondPro-Regular, Adobe Garamond Pro" font-size="55" font-weight="normal" fill="#191919">
                <tspan x="11.8121019" y="54">P</tspan>
            </text>
            <path d="M53.59,31.125 C54.5866716,31.125 55.4099968,31.0383342 56.06,30.865 C56.7100032,30.6916658 57.2949974,30.605 57.815,30.605 C59.7650097,30.605 61.3141609,31.1466612 62.4625,32.23 C63.6108391,33.3133387 64.4016645,34.6133258 64.835,36.13 C65.225002,37.6900078 65.6366645,38.8599961 66.07,39.64 C66.8066703,40.98334 67.3266651,42.1533283 67.63,43.15 C67.9333348,44.1466717 68.085,44.8183316 68.085,45.165 C68.085,46.1616716 67.8141694,46.9091642 67.2725,47.4075 C66.7308306,47.9058358 66.3300013,48.2416658 66.07,48.415 C65.5933309,48.7616684 65.257501,49.1516645 65.0625,49.585 C64.867499,50.0183355 64.7266671,50.4949974 64.64,51.015 C64.5533329,51.5350026 64.4558339,52.0658306 64.3475,52.6075 C64.2391661,53.1491694 64.0550013,53.6799974 63.795,54.2 C63.5783323,54.6333355 63.2858352,55.0341648 62.9175,55.4025 C62.5491648,55.7708352 62.1808352,56.149998 61.8125,56.54 C61.4441648,56.930002 61.1191681,57.3416645 60.8375,57.775 C60.5558319,58.2083355 60.415,58.7066638 60.415,59.27 C60.415,59.4866677 60.3716671,59.7466651 60.285,60.05 C60.1983329,60.3533348 59.9816684,60.505 59.635,60.505 C59.4183322,60.505 59.2775003,60.3750013 59.2125,60.115 C59.1474997,59.8549987 58.9416684,59.4216697 58.595,58.815 C58.4649993,58.5983322 58.1941687,58.4250007 57.7825,58.295 C57.3708313,58.1649993 56.9158358,58.0675003 56.4175,58.0025 C55.9191642,57.9374997 55.431669,57.8941668 54.955,57.8725 C54.478331,57.8508332 54.1100013,57.84 53.85,57.84 C52.8099948,57.84 52.29,58.2299961 52.29,59.01 C52.29,59.2700013 52.3441661,59.6599974 52.4525,60.18 C52.5608339,60.7000026 52.615,61.1116652 52.615,61.415 C52.615,61.7616684 52.5825003,62.1841642 52.5175,62.6825 C52.4524997,63.1808358 52.3766671,63.6683309 52.29,64.145 C52.2033329,64.6216691 52.1275003,65.0766645 52.0625,65.51 C51.9974997,65.9433355 51.965,66.2899987 51.965,66.55 C51.965,66.7666677 52.0408326,67.0591648 52.1925,67.4275 C52.3441674,67.7958352 52.517499,68.174998 52.7125,68.565 C52.907501,68.9550019 53.0916658,69.3341648 53.265,69.7025 C53.4383342,70.0708352 53.525,70.3849987 53.525,70.645 C53.525,71.1650026 53.3516684,71.619998 53.005,72.01 C52.6583316,72.400002 52.485,72.7683316 52.485,73.115 C52.485,73.505002 52.5716658,73.8516652 52.745,74.155 C52.9183342,74.4583348 53.005,74.7399987 53.005,75 C53.005,75.3466684 52.907501,75.6391655 52.7125,75.8775 C52.517499,76.1158345 52.3116677,76.3649987 52.095,76.625 C51.8783322,76.8850013 51.672501,77.1449987 51.4775,77.405 C51.282499,77.6650013 51.185,77.9683316 51.185,78.315 C51.185,79.0516703 51.2391661,79.6908306 51.3475,80.2325 C51.4558339,80.7741694 51.51,81.3049974 51.51,81.825 C51.51,82.0850013 51.3691681,82.2691661 51.0875,82.3775 C50.8058319,82.4858339 50.5783342,82.54 50.405,82.54 C50.0583316,82.54 49.7333348,82.4316678 49.43,82.215 C49.1266652,81.9983323 48.975,81.7166684 48.975,81.37 C48.975,80.6333297 49.1374984,79.92917 49.4625,79.2575 C49.7875016,78.58583 49.95,77.8383374 49.95,77.015 C49.95,76.538331 49.7766684,76.2350007 49.43,76.105 C49.0833316,75.9749994 48.7366684,75.91 48.39,75.91 C47.8699974,75.91 47.512501,76.0508319 47.3175,76.3325 C47.122499,76.6141681 46.9925003,76.9174984 46.9275,77.2425 C46.8624997,77.5675016 46.8083336,77.8599987 46.765,78.12 C46.7216665,78.3800013 46.5700013,78.51 46.31,78.51 C46.0499987,78.51 45.8550007,78.3366684 45.725,77.99 C45.5949994,77.6433316 45.4866671,77.2425023 45.4,76.7875 C45.3133329,76.3324977 45.2591668,75.8883355 45.2375,75.455 C45.2158332,75.0216645 45.205,74.6966678 45.205,74.48 C45.205,73.7866632 45.2483329,73.2558352 45.335,72.8875 C45.4216671,72.5191648 45.465,71.9883368 45.465,71.295 C45.465,71.0349987 45.4000007,70.7100019 45.27,70.32 C45.1399993,69.929998 44.9883342,69.5075023 44.815,69.0525 C44.6416658,68.5974977 44.4900006,68.1425023 44.36,67.6875 C44.2299993,67.2324977 44.165,66.810002 44.165,66.42 C44.165,66.2033323 44.1758332,66.0083342 44.1975,65.835 C44.2191668,65.6616658 44.2949993,65.4450013 44.425,65.185 C44.8583355,64.2316619 45.1291661,63.2025055 45.2375,62.0975 C45.3458339,60.9924945 45.4,59.8766723 45.4,58.75 L45.4,56.735 C45.4,56.258331 45.1941687,55.6300039 44.7825,54.85 C44.3708313,54.0699961 44.165,53.246671 44.165,52.38 C44.165,52.3366664 44.2083329,52.1416684 44.295,51.795 L44.5875,50.625 C44.6958339,50.1916645 44.7933329,49.7583355 44.88,49.325 C44.9666671,48.8916645 45.01,48.5450013 45.01,48.285 C45.0966671,47.418329 45.1724997,46.5300046 45.2375,45.62 C45.3025003,44.7099954 45.335,43.8866704 45.335,43.15 C45.335,42.9333322 45.2591674,42.6083355 45.1075,42.175 C44.9558326,41.7416645 44.782501,41.2866691 44.5875,40.81 C44.392499,40.3333309 44.2191674,39.8458358 44.0675,39.3475 C43.9158326,38.8491642 43.84,38.4266684 43.84,38.08 C43.84,37.603331 44.0024984,37.0833362 44.3275,36.52 C44.6525016,35.9566638 44.815,35.3716697 44.815,34.765 C44.815,34.5483323 44.7066678,34.2233355 44.49,33.79 C44.2733323,33.3566645 44.165,32.9883349 44.165,32.685 C44.165,31.9483296 44.4683303,31.3525023 45.075,30.8975 C45.6816697,30.4424977 46.418329,30.215 47.285,30.215 C48.2383381,30.215 49.2133283,30.3666652 50.21,30.67 C51.2066717,30.9733349 52.3333271,31.125 53.59,31.125 Z M58.27,45.49 C58.27,44.1033264 58.2050007,43.2150019 58.075,42.825 C57.9449994,42.4349981 57.7066684,42.24 57.36,42.24 C57.0999987,42.24 56.8941674,42.3591655 56.7425,42.5975 C56.5908326,42.8358345 56.4500006,43.0958319 56.32,43.3775 C56.1899994,43.6591681 56.0600006,43.9191655 55.93,44.1575 C55.7999994,44.3958345 55.6266677,44.515 55.41,44.515 C55.2366658,44.515 55.0741674,44.3958345 54.9225,44.1575 C54.7708326,43.9191655 54.695,43.6916677 54.695,43.475 C54.695,42.8683303 54.7708326,42.1641707 54.9225,41.3625 C55.0741674,40.5608293 55.15,39.921669 55.15,39.445 C55.15,38.8383303 54.9225023,38.4591674 54.4675,38.3075 C54.0124977,38.1558326 53.4600032,38.08 52.81,38.08 C52.0299961,38.08 51.5641674,38.2099987 51.4125,38.47 C51.2608326,38.7300013 51.185,39.0766645 51.185,39.51 C51.185,40.2900039 51.3041655,40.8641648 51.5425,41.2325 C51.7808345,41.6008352 52.0516651,41.8933323 52.355,42.11 C52.6583349,42.3266677 52.9291655,42.4999994 53.1675,42.63 C53.4058345,42.7600006 53.525,42.9766651 53.525,43.28 C53.525,43.6266684 53.3408352,43.9733316 52.9725,44.32 C52.6041648,44.6666684 52.42,45.0133316 52.42,45.36 C52.42,45.6200013 52.4741661,45.8583323 52.5825,46.075 C52.6908339,46.2916678 52.745,46.5083322 52.745,46.725 C52.745,47.0716684 52.5825016,47.5266638 52.2575,48.09 C51.9324984,48.6533362 51.77,49.0866652 51.77,49.39 C51.77,49.4766671 51.7916665,49.6391655 51.835,49.8775 C51.8783336,50.1158345 51.9866658,50.3433323 52.16,50.56 C52.3333342,50.7766678 52.5824984,50.9716658 52.9075,51.145 C53.2325016,51.3183342 53.6983303,51.405 54.305,51.405 C54.8250026,51.405 55.3341642,51.2208352 55.8325,50.8525 C56.3308358,50.4841648 56.7533316,50.0183361 57.1,49.455 C57.4466684,48.8916639 57.7283323,48.2525036 57.945,47.5375 C58.1616677,46.8224964 58.27,46.1400032 58.27,45.49 Z" id="P" fill="#CD1602"></path>
        </g>
    </g>
</svg>