<?xml version="1.0" encoding="UTF-8"?>
<svg width="79px" height="92px" viewBox="0 0 79 92" version="1.1" xmlns="http://www.w3.org/2000/svg" xmlns:xlink="http://www.w3.org/1999/xlink">
    <!-- Generator: Sketch 49 (51002) - http://www.bohemiancoding.com/sketch -->
    <title>logo_50</title>
    <desc>Created with Sketch.</desc>
    <defs>
        <rect id="path-1" x="0" y="0" width="79" height="79"></rect>
        <linearGradient x1="50%" y1="0%" x2="50%" y2="100%" id="linearGradient-2">
            <stop stop-color="#FF0017" offset="0%"></stop>
            <stop stop-color="#9A0118" offset="100%"></stop>
        </linearGradient>
    </defs>
    <g id="logo_50" stroke="none" stroke-width="1" fill="none" fill-rule="evenodd">
        <g id="Rectangle-8">
            <use fill="#FFFFFF" fill-rule="evenodd" xlink:href="#path-1"></use>
            <rect stroke="#000000" stroke-width="2" x="1" y="1" width="77" height="77"></rect>
        </g>
        <text id="P" font-family="AGaramondPro-Regular, Adobe Garamond Pro" font-size="55" font-weight="normal" fill="#191919">
            <tspan x="11.8121019" y="54">P</tspan>
        </text>
        <path d="M45.9809725,45.3488372 C46.497771,45.3901811 47.0300654,45.4625318 47.5778717,45.5658915 C48.1256781,45.6692512 48.6579725,45.7209302 49.174771,45.7209302 L49.4848485,45.7209302 C49.5468643,45.6589144 49.6450545,45.5555563 49.7794221,45.4108527 C49.9137897,45.2661491 50.063659,45.1162798 50.2290345,44.9612403 C50.39441,44.8062008 50.5442793,44.6614994 50.6786469,44.5271318 L50.9732206,44.2325581 C51.0145645,44.2325581 51.1696017,44.1447037 51.4383369,43.9689922 C51.7070721,43.7932808 51.9137883,43.6640831 52.0584919,43.5813953 C52.2445393,43.4987076 52.5029347,43.3746778 52.8336857,43.2093023 C53.1644367,43.0439268 53.4228321,42.8785538 53.6088795,42.7131783 C53.7329111,42.5891467 53.9292916,42.3875983 54.1980268,42.1085271 C54.466762,41.829456 54.7354931,41.5452211 55.0042283,41.255814 C55.2729635,40.9664068 55.5158552,40.6925078 55.7329105,40.4341085 C55.9499658,40.1757093 56.0791635,40.0051684 56.1205074,39.9224806 C56.4512584,39.4883699 56.7251575,38.9974188 56.9422128,38.4496124 C57.1592682,37.901806 57.3194733,37.3333363 57.422833,36.744186 C57.5261927,36.1550358 57.5985434,35.5710623 57.6398872,34.9922481 C57.6812311,34.4134338 57.7019027,33.8759715 57.7019027,33.379845 C57.7019027,33.028422 57.5985446,32.7183476 57.3918252,32.4496124 C57.1851058,32.1808772 56.9990612,31.8708028 56.8336857,31.5193798 C56.7923418,31.4987079 56.7458307,31.4211893 56.6941508,31.2868217 C56.642471,31.1524541 56.5804561,31.0129206 56.5081043,30.8682171 C56.4357525,30.7235135 56.3634018,30.5891479 56.29105,30.4651163 C56.2186983,30.3410847 56.1618513,30.2790698 56.1205074,30.2790698 C56.1205074,30.196382 56.032653,30.0671843 55.8569415,29.8914729 L55.5313601,29.5658915 C55.5313601,29.5452195 55.5003527,29.4728688 55.4383369,29.3488372 C55.376321,29.2248056 55.3091383,29.0852721 55.2367865,28.9302326 C55.1644347,28.775193 55.092084,28.6356595 55.0197322,28.5116279 C54.9473804,28.3875963 54.8905334,28.3152456 54.8491896,28.2945736 C54.8491896,28.2739017 54.7975105,28.2273905 54.6941508,28.1550388 C54.5907911,28.082687 54.4719293,28.0000005 54.3375617,27.9069767 C54.2031941,27.813953 54.0688285,27.7260986 53.9344609,27.6434109 C53.8000933,27.5607231 53.6915672,27.4883724 53.6088795,27.4263566 C53.5675356,27.3850127 53.4848491,27.3385016 53.3608175,27.2868217 C53.2367858,27.2351419 53.1644352,27.2093023 53.1437632,27.2093023 C53.1230913,27.1886304 53.081748,27.1317834 53.0197322,27.0387597 L52.8336857,26.7596899 C52.7716699,26.6666662 52.709655,26.5788118 52.6476392,26.496124 C52.5856234,26.4134363 52.5546159,26.3617572 52.5546159,26.3410853 C52.5132721,26.3410853 52.461593,26.3100778 52.3995772,26.248062 C52.3789052,26.2273901 52.3582336,26.1963826 52.3375617,26.1550388 C52.2755458,26.1343668 52.1721877,26.1033594 52.0274841,26.0620155 C51.8827806,26.0206716 51.7277434,25.9741605 51.5623679,25.9224806 C51.3969924,25.8708008 51.2367872,25.8242896 51.0817477,25.7829457 C50.9267082,25.7416019 50.8181821,25.7209302 50.7561663,25.7209302 C50.7354944,25.7209302 50.6631437,25.7105944 50.5391121,25.6899225 C50.4150804,25.6692505 50.2807148,25.643411 50.1360113,25.6124031 C49.9913077,25.5813952 49.8569421,25.5555557 49.7329105,25.5348837 C49.6088789,25.5142118 49.5261924,25.503876 49.4848485,25.503876 C49.4435046,25.483204 49.3504823,25.4521966 49.2057787,25.4108527 C49.0610752,25.3695088 48.9060379,25.3178298 48.7406624,25.255814 C48.5752869,25.1937981 48.4150818,25.1421191 48.2600423,25.1007752 C48.1050027,25.0594313 48.0068125,25.0284239 47.9654686,25.0077519 L47.3453136,25.0077519 C47.3039697,25.0697678 47.2212832,25.1886296 47.0972516,25.3643411 C46.97322,25.5400526 46.8388544,25.7209293 46.6941508,25.9069767 C46.5494472,26.0930242 46.4099138,26.268733 46.2755462,26.4341085 C46.1411786,26.599484 46.0429883,26.713178 45.9809725,26.7751938 C45.9396286,26.8578816 45.8879496,26.9560718 45.8259338,27.0697674 C45.7639179,27.1834631 45.7019031,27.302325 45.6398872,27.4263566 L45.3918252,27.8604651 L45.3918252,31.7054264 C45.1851058,32.0981932 45.0455724,32.5219616 44.9732206,32.9767442 C44.9008688,33.4315268 44.8646934,33.8863026 44.8646934,34.3410853 L44.8646934,34.8992248 C44.8646934,35.0852722 44.8853651,35.2609811 44.9267089,35.4263566 C44.8853651,35.4677005 44.8181823,35.5658907 44.7251586,35.7209302 C44.6321348,35.8759698 44.5752879,35.97416 44.5546159,36.0155039 L44.5546159,36.4806202 C44.5546159,36.7080115 44.5701196,37.012918 44.6011276,37.3953488 C44.6321355,37.7777797 44.657975,38.149869 44.6786469,38.5116279 C44.6993189,38.8733868 44.7199905,39.1937971 44.7406624,39.4728682 C44.7613344,39.7519394 44.7716702,39.9018087 44.7716702,39.9224806 C44.7716702,39.9638245 44.7923418,40.0413431 44.8336857,40.1550388 C44.8750296,40.2687344 44.9215407,40.3979321 44.9732206,40.5426357 C45.0249004,40.6873392 45.0714116,40.8217048 45.1127555,40.9457364 C45.1540993,41.0697681 45.1851068,41.1421188 45.2057787,41.1627907 L45.2057787,42.9302326 C45.2057787,42.9715764 45.1696034,43.0387592 45.0972516,43.1317829 C45.0248998,43.2248067 44.9680528,43.3229969 44.9267089,43.4263566 C44.9267089,43.4470285 44.8646941,43.5400509 44.7406624,43.7054264 C44.6166308,43.8708019 44.5546159,43.97416 44.5546159,44.0155039 L44.5546159,44.2325581 C44.5546159,44.2532301 44.5856234,44.2945733 44.6476392,44.3565891 L44.7716702,44.4806202 C44.7923421,44.4806202 44.8957003,44.4392769 45.0817477,44.3565891 C45.2677952,44.2739014 45.3711533,44.2325581 45.3918252,44.2325581 C45.6812324,44.2325581 45.8259338,44.3565879 45.8259338,44.6046512 C45.8259338,44.6873389 45.8207658,44.7545217 45.8104299,44.8062016 C45.8000939,44.8578814 45.794926,44.9250642 45.794926,45.0077519 C45.794926,45.1937994 45.8569409,45.3074933 45.9809725,45.3488372 Z M32.6786469,63.3643411 C32.657975,63.2816533 32.7251578,63.1472878 32.8801973,62.9612403 C33.0352369,62.7751929 33.2264494,62.5943161 33.4538407,62.4186047 C33.6812321,62.2428932 33.90862,62.0826881 34.1360113,61.9379845 C34.3634026,61.7932809 34.5287756,61.7209302 34.6321353,61.7209302 C34.6941511,61.7002583 34.8285167,61.6795867 35.0352361,61.6589147 C35.2419555,61.6382428 35.4641755,61.6175712 35.7019027,61.5968992 C35.93963,61.5762273 36.16185,61.5555557 36.3685694,61.5348837 C36.5752888,61.5142118 36.7096544,61.503876 36.7716702,61.503876 C36.8130141,61.4625321 36.9422117,61.3643419 37.1592671,61.2093023 C37.3763224,61.0542628 37.5365276,60.9354009 37.6398872,60.8527132 C37.6605592,60.7906974 37.7329099,60.7080109 37.8569415,60.6046512 C37.9809731,60.5012915 38.0636596,60.418605 38.1050035,60.3565891 C38.1050035,60.2739014 38.1101714,60.1240321 38.1205074,59.9069767 C38.1308434,59.6899214 38.1463471,59.4521977 38.167019,59.1937984 C38.187691,58.9353992 38.2135305,58.6925076 38.2445384,58.4651163 C38.2755463,58.237725 38.3013858,58.0826878 38.3220578,58 C38.3220578,57.9793281 38.3427294,57.8863057 38.3840733,57.7209302 C38.4254172,57.5555547 38.4667604,57.374678 38.5081043,57.1782946 C38.5494482,56.9819112 38.5907914,56.7958665 38.6321353,56.620155 C38.6734792,56.4444436 38.6941508,56.3359175 38.6941508,56.2945736 L38.6941508,56.1705426 C38.6941508,55.8604636 38.6321359,55.5503891 38.5081043,55.2403101 C38.3840727,54.930231 38.3220578,54.599485 38.3220578,54.248062 C38.3220578,53.8139513 38.3840727,53.3798471 38.5081043,52.9457364 C38.6321359,52.5116257 38.6941508,52.0568499 38.6941508,51.5813953 L38.6941508,51.3023256 C38.6941508,51.2196378 38.683815,50.9560746 38.6631431,50.5116279 C38.6424711,50.0671812 38.6166316,49.5917338 38.5856237,49.0852713 C38.5546158,48.5788088 38.5287762,48.1033614 38.5081043,47.6589147 C38.4874324,47.2144681 38.4770965,46.9302332 38.4770965,46.8062016 L38.4770965,46.4031008 C38.4770965,46.2170533 38.5236077,46.0310087 38.6166314,45.8449612 C38.7096552,45.6589138 38.8181812,45.4780371 38.9422128,45.3023256 C39.0662445,45.1266141 39.1747705,44.9405695 39.2677942,44.744186 C39.3608179,44.5478026 39.4073291,44.3359184 39.4073291,44.1085271 C39.4073291,43.9224797 39.3608179,43.7260992 39.2677942,43.5193798 C39.1747705,43.3126605 39.1282593,43.11628 39.1282593,42.9302326 C39.1282593,42.6614974 39.20061,42.4134378 39.3453136,42.1860465 C39.4900172,41.9586552 39.5623679,41.7105957 39.5623679,41.4418605 C39.5623679,41.0077498 39.500353,40.4806233 39.3763214,39.8604651 C39.2522897,39.240307 39.1902748,38.6718372 39.1902748,38.1550388 C39.148931,37.9689913 39.1282593,37.6485811 39.1282593,37.1937984 L39.1282593,34.2635659 C39.1282593,33.7984473 39.148931,33.4728691 39.1902748,33.2868217 C39.0248993,33.0387584 38.9008696,32.7648594 38.8181818,32.4651163 C38.7354941,32.1653732 38.6941508,31.8811383 38.6941508,31.6124031 L38.6941508,31.5193798 C38.7148227,31.4987079 38.7458302,31.4315251 38.7871741,31.3178295 C38.8285179,31.2041338 38.880197,31.0852719 38.9422128,30.9612403 C39.0042286,30.8372087 39.0559077,30.7235147 39.0972516,30.620155 C39.1385955,30.5167953 39.1696029,30.4547805 39.1902748,30.4341085 L39.1902748,29.3178295 C39.1902748,28.801031 39.1179241,28.2842403 38.9732206,27.7674419 C38.828517,27.2506434 38.5391142,26.8475467 38.1050035,26.5581395 C38.0016438,26.5581395 37.8311029,26.5374679 37.5933756,26.496124 C37.3556483,26.4547802 37.1127567,26.4134369 36.8646934,26.372093 C36.6166302,26.3307491 36.3789065,26.2894059 36.1515152,26.248062 C35.9241238,26.2067181 35.7690866,26.1757107 35.6863989,26.1550388 C35.6657269,26.1136949 35.5727046,26.0568479 35.4073291,25.9844961 C35.2419536,25.9121443 35.1385955,25.875969 35.0972516,25.875969 C35.0559077,25.875969 34.9318779,25.8863048 34.7251586,25.9069767 C34.5184392,25.9276487 34.3220587,25.9379845 34.1360113,25.9379845 C33.9292919,25.9379845 33.8052621,25.9173129 33.7639183,25.875969 C33.5985427,25.8552971 33.4383376,25.7829464 33.2832981,25.6589147 C33.1282586,25.5348831 32.9887251,25.3901817 32.8646934,25.2248062 C32.7406618,25.0594307 32.6424716,24.8837219 32.5701198,24.6976744 C32.497768,24.511627 32.4615927,24.346254 32.4615927,24.2015504 C32.4615927,23.9534871 32.5236076,23.7157634 32.6476392,23.4883721 C32.7716708,23.2609808 32.926708,23.0594324 33.1127555,22.8837209 C33.2988029,22.7080095 33.5055192,22.568476 33.7329105,22.4651163 C33.9603018,22.3617566 34.1876897,22.2997417 34.415081,22.2790698 C34.4770969,22.2583978 34.6476378,22.2377262 34.9267089,22.2170543 C35.2057801,22.1963823 35.5210224,22.1705428 35.8724454,22.1395349 C36.2238683,22.108527 36.5649502,22.0826874 36.8957012,22.0620155 C37.2264522,22.0413436 37.4745117,22.0206719 37.6398872,22 L38.6941508,22 C38.7561666,22.0206719 38.9060359,22.0465115 39.1437632,22.0775194 C39.3814905,22.1085273 39.6347179,22.1395347 39.9034531,22.1705426 C40.1721883,22.2015505 40.4254158,22.2273901 40.6631431,22.248062 C40.9008703,22.268734 41.0507396,22.2790698 41.1127555,22.2790698 L48.2445384,22.2790698 C48.2858823,22.2790698 48.4099121,22.3152451 48.6166314,22.3875969 C48.8233508,22.4599487 48.9680522,22.496124 49.05074,22.496124 L49.174771,22.496124 C49.5468658,22.496124 49.8776119,22.4496129 50.167019,22.3565891 C50.4564262,22.2635654 50.8388513,22.2170543 51.3143058,22.2170543 C51.4796814,22.2170543 51.7122372,22.2273901 52.0119803,22.248062 C52.3117234,22.268734 52.4926001,22.2790698 52.5546159,22.2790698 C52.5752879,22.2790698 52.6993176,22.3152451 52.9267089,22.3875969 C53.1541003,22.4599487 53.3091375,22.496124 53.3918252,22.496124 C53.7639201,22.5374679 54.1928564,22.5736433 54.6786469,22.6046512 C55.1644375,22.6356591 55.5830379,22.7235135 55.9344609,22.8682171 C56.7199945,23.1576242 57.4383336,23.498706 58.0894996,23.8914729 C58.7406657,24.2842397 59.3969899,24.7493513 60.0584919,25.2868217 C60.4719307,25.5969008 60.9163707,26.0671803 61.3918252,26.6976744 C61.8672798,27.3281685 62.3168877,28.0155002 62.7406624,28.7596899 C63.1644372,29.5038797 63.5313586,30.2532262 63.8414376,31.0077519 C64.1515167,31.7622777 64.3375614,32.4289377 64.3995772,33.0077519 L64.3995772,34.3410853 C64.3995772,34.3824291 64.4357525,34.5167947 64.5081043,34.744186 C64.5804561,34.9715774 64.6166314,35.1059429 64.6166314,35.1472868 L64.6166314,35.4263566 C64.4719279,36.1912183 64.3117227,36.9457327 64.1360113,37.6899225 C63.9602998,38.4341122 63.7432477,39.1627871 63.4848485,39.875969 C63.2264493,40.5891509 62.906039,41.2764825 62.5236082,41.9379845 C62.1411773,42.5994865 61.6708978,43.2196353 61.1127555,43.7984496 L61.0352361,43.875969 C60.9835562,43.9276488 60.9215414,43.9793279 60.8491896,44.0310078 C60.7768378,44.0826876 60.7044871,44.1291988 60.6321353,44.1705426 C60.5597835,44.2118865 60.5132724,44.2325581 60.4926004,44.2325581 C60.4512565,44.2532301 60.3582342,44.3565882 60.2135307,44.5426357 C60.0688271,44.7286831 59.9034541,44.9353994 59.7174066,45.1627907 C59.5313592,45.390182 59.3453145,45.6227378 59.1592671,45.8604651 C58.9732196,46.0981924 58.8388541,46.2790691 58.7561663,46.4031008 C58.7148224,46.4444447 58.6321359,46.5478028 58.5081043,46.7131783 C58.3840727,46.8785538 58.3220578,46.9819119 58.3220578,47.0232558 C57.8672752,47.0439278 57.5055217,47.0697673 57.2367865,47.1007752 C56.9680513,47.1317831 56.6889843,47.2609808 56.3995772,47.4883721 C56.1515139,47.6124037 55.8517753,47.7416014 55.5003524,47.875969 C55.1489294,48.0103366 54.782008,48.1291984 54.3995772,48.2325581 C54.0171463,48.3359178 53.6398891,48.4186043 53.2677942,48.4806202 C52.8956993,48.542636 52.5649533,48.5736434 52.2755462,48.5736434 C51.7380758,48.5736434 51.2316209,48.4754532 50.7561663,48.2790698 C50.2807117,48.0826864 49.8052643,47.9431529 49.3298097,47.8604651 L48.3995772,47.8604651 C47.9861384,47.8191212 47.6243849,47.7002594 47.3143058,47.503876 C47.0042268,47.3074926 46.6321375,47.2093023 46.1980268,47.2093023 L45.9499648,47.2093023 C45.7845893,47.2093023 45.6088804,47.229974 45.422833,47.2713178 C45.2367855,47.3126617 45.0714125,47.3850124 44.9267089,47.4883721 C44.9267089,47.5503879 44.9112052,47.653746 44.8801973,47.7984496 C44.8491894,47.9431532 44.8078462,48.0930225 44.7561663,48.248062 C44.7044865,48.4031016 44.6579753,48.5478029 44.6166314,48.6821705 C44.5752876,48.8165381 44.5546159,48.9043926 44.5546159,48.9457364 C44.533944,48.9870803 44.5029365,49.0645989 44.4615927,49.1782946 C44.4202488,49.2919902 44.3737376,49.4056842 44.3220578,49.5193798 C44.2703779,49.6330755 44.2238668,49.7416016 44.1825229,49.8449612 L44.1205074,50 C44.0791635,50 44.0584919,50.0413433 44.0584919,50.124031 L44.0584919,50.3565891 C44.0584919,50.408269 44.0791635,50.4547802 44.1205074,50.496124 C44.1205074,50.5374679 44.1928581,50.6718335 44.3375617,50.8992248 C44.4822652,51.1266161 44.5546159,51.2609817 44.5546159,51.3023256 C44.5546159,51.3436695 44.5701196,51.4315239 44.6011276,51.5658915 C44.6321355,51.7002591 44.657975,51.8449605 44.6786469,52 C44.6993189,52.1550395 44.7199905,52.294573 44.7406624,52.4186047 C44.7613344,52.5426363 44.7716702,52.614987 44.7716702,52.6356589 L44.9267089,53.0697674 L45.0197322,53.2248062 C45.0197322,53.4935414 44.9525494,53.7984479 44.8181818,54.1395349 C44.6838142,54.4806219 44.5959598,54.7648567 44.5546159,54.9922481 C44.533944,55.0335919 44.5029365,55.1162784 44.4615927,55.2403101 C44.4202488,55.3643417 44.3737376,55.4987073 44.3220578,55.6434109 C44.2703779,55.7881144 44.2238668,55.92248 44.1825229,56.0465116 C44.141179,56.1705433 44.1205074,56.2532298 44.1205074,56.2945736 C44.1205074,56.3565895 44.141179,56.490955 44.1825229,56.6976744 C44.2238668,56.9043938 44.2703779,57.1317817 44.3220578,57.379845 C44.3737376,57.6279082 44.4202488,57.860464 44.4615927,58.0775194 C44.5029365,58.2945747 44.533944,58.4341082 44.5546159,58.496124 C44.6166317,58.7855312 44.657975,59.0852698 44.6786469,59.3953488 C44.6993189,59.7054279 44.74583,60.0155023 44.8181818,60.3255814 C44.8905336,60.6356605 45.0042276,60.9250633 45.1592671,61.1937984 C45.3143066,61.4625336 45.5365266,61.7002574 45.8259338,61.9069767 C45.9086215,61.9689926 46.0636587,62.0516791 46.29105,62.1550388 C46.5184414,62.2583984 46.6528069,62.3100775 46.6941508,62.3100775 L49.4848485,62.3100775 C49.5882082,62.3100775 49.7535812,62.3875961 49.9809725,62.5426357 C50.2083638,62.6976752 50.4305838,62.873384 50.6476392,63.0697674 C50.8646945,63.2661509 51.0559071,63.4470276 51.2212826,63.6124031 C51.3866581,63.7777786 51.4693446,63.8708009 51.4693446,63.8914729 L51.4693446,64.0775194 C51.3039691,64.3669265 51.1540998,64.6046502 51.0197322,64.7906977 C50.8853646,64.9767451 50.7406632,65.1369502 50.5856237,65.2713178 C50.4305841,65.4056854 50.2548753,65.5090436 50.0584919,65.5813953 C49.8621085,65.6537471 49.6192169,65.7209299 49.3298097,65.7829457 C49.1437623,65.7829457 48.82852,65.7726099 48.3840733,65.751938 C47.9396266,65.731266 47.4796829,65.7209302 47.0042283,65.7209302 C46.5287738,65.7209302 46.0791658,65.731266 45.6553911,65.751938 C45.2316164,65.7726099 44.9370457,65.7829457 44.7716702,65.7829457 C44.6683105,65.7829457 44.4770979,65.8087853 44.1980268,65.8604651 C43.9189556,65.912145 43.7484147,65.9586561 43.6863989,66 L36.3375617,66 C36.0688265,65.8139526 35.8207669,65.7209302 35.5933756,65.7209302 C35.4900159,65.7209302 35.3866578,65.731266 35.2832981,65.751938 C35.1799384,65.7726099 35.0455728,65.7829457 34.8801973,65.7829457 L34.6321353,65.7829457 C34.0119772,65.679586 33.5468655,65.405687 33.2367865,64.9612403 C32.9267074,64.5167936 32.7406627,63.9844992 32.6786469,63.3643411 Z" id="Perish" fill="url(#linearGradient-2)"></path>
    </g>
</svg>