<?xml version="1.0" encoding="utf-8"?>
<!-- Generator: Adobe Illustrator 22.0.1, SVG Export Plug-In . SVG Version: 6.00 Build 0)  -->
<svg version="1.1" id="Layer_1" xmlns="http://www.w3.org/2000/svg" xmlns:xlink="http://www.w3.org/1999/xlink" x="0px" y="0px"
	 viewBox="0 0 322 124" style="enable-background:new 0 0 322 124;" xml:space="preserve">
<style type="text/css">
	.st0{font-family:'AGaramondPro-Regular';}
	.st1{font-size:64px;}
	.st2{font-size:38.4px;}
	.st3{fill:url(#SVGID_1_);}
</style>
<g transform="translate(-2 -1)">
	<text transform="matrix(1 0 0 1 6.399536e-02 46.6)" class="st0 st1">Publish</text>
	<text transform="matrix(1 0 0 1 198.2944 47)" class="st0 st2">or</text>
	
		<linearGradient id="SVGID_1_" gradientUnits="userSpaceOnUse" x1="-133.4797" y1="478.3871" x2="-132.4797" y2="477.5638" gradientTransform="matrix(241.2129 0 0 -65.872 32268.8164 31574.3359)">
		<stop  offset="0" style="stop-color:#EE5E31"/>
		<stop  offset="0.222" style="stop-color:#FFE500"/>
		<stop  offset="0.4127" style="stop-color:#90CC2D"/>
		<stop  offset="0.6023" style="stop-color:#2EE2E2"/>
		<stop  offset="0.8082" style="stop-color:#4986FC"/>
		<stop  offset="1" style="stop-color:#FD14FF"/>
	</linearGradient>
	<path class="st3" d="M84.8,94.3l5.9-1.4c0.6-5.2,1.7-11.4,2.4-13.2c2.3-2.2,6.1-4.7,8.4-5.7c-2.4-0.8-7.3-1.9-12.9-2.9
		c-2.6-0.4-3.4-1.7-4-3.4c-0.9-2.8-1.7-5.5-2.3-8.5c14-0.2,31.7,1.6,38.6,7.8c6.3,5.6,11.7,16.9,12.1,21.7c0.3,3.6-0.2,5.6-3.5,8.4
		c-7.5,6.3-21.3,9-29,9.8l-1.7-1.8l-2.1,10.7L99,118l-0.6,2.9l-7.9,3.6l-1.3-0.7c-0.1-6.4-0.2-18.4,0.3-22.3l-0.7-0.4L84.8,94.3z
		 M100.2,90.3c6.3-1.8,14.4-4.7,18.3-7.4c-3.7-3.4-11.1-7-15.9-8.5C102,80,100.9,86.6,100.2,90.3z M150.8,108.2l1.6,4.8l12.6-4.7
		l-0.1,5.7c-1.9,1.6-5.3,4.7-7.9,4.8c-5.9,0.2-14.7-4.5-20-10.9c-0.4-16.7,10.4-25.8,10.9-26c1.7-0.6,10.9,1.7,15.2,4
		c0.8,1.3,1.5,2.8,2.1,4.1C163.2,93.4,154.5,104.2,150.8,108.2L150.8,108.2z M150.8,99.7c2.2-2.8,5.5-7.2,6.7-9.9
		C154.2,89.8,151.1,93.7,150.8,99.7z M193.2,104.3c-2.5,2-6.5,5.2-10.4,7.4c1.8,1,3.3,2.2,5,3.6c-8.3,6.8-16.7,5.4-16.7,1.5
		c-0.2-4.6,6.8-13.5,10.6-18c-5.2-4.2-11.6-3.3-11.8-10.3c-0.1-2.8,0.7-7.5,1.3-8c0.6-0.5,11.7,2.5,16.7,4.9c4.3,2,5.4,3.2,5.8,6.8
		C194.1,96.1,193.5,101.5,193.2,104.3z M219.8,88.6c-1.2,6.2-4,20.1-4.6,27.7l-2.6,1.7c-2.2-0.9-6-2.5-6.6-3.2
		c-1.4-1.4-2.9-6.6-3.3-8.6l-4-0.1l0.2-6.3c6.2-9.5,11.1-12.5,18.7-14.5L219.8,88.6z M210.7,81.5l-6.5-4.4c2.8-2.9,7-7.1,8.1-7.8
		c0.7-0.5,5.3-1.7,7.6-2.3l2.4,5.3L210.7,81.5z M227.8,92.7c5.7-6.4,17.5-12,21.2-13.1c2.2,1.5,3.4,2.4,5.4,4.8
		c-2.9,1.5-9.7,5.5-12.5,10.4c4.2,1.7,11.2,6,11.2,9c0,5.3-7.2,14-19.4,19.8l-0.1-5.2c2.1-1.6,5.2-4.3,6-7.5c-1.7-0.5-5.5-1.3-7.3-2
		c-1.4-0.6-2.2-1.7-2.8-3.7C228.2,100.5,227.8,95.2,227.8,92.7z M290.7,112.3l0.8,2.1l-6.1,5.2c-1.4-4.3-3.1-8.6-7.5-13.2
		c-4.4,3-9.8,9.7-13.2,16.7l-4.3,1c-2-8.4-2.7-18.6-2-22.7c0.4-2.7,12.4-28,23.4-41.7c3.3-0.4,6.3-0.3,8.9,0.4
		c-0.6,6.7-6.5,20.9-12.7,27.9c-1.4,3.7-6.2,15.2-8.1,19.6l0.6,0.3c4.3-7.9,8.3-13.1,12.9-19.6l2.2,0.2l0.8-1.5l4.4,0.2
		c1.4,7.4,2.9,20.6,2.4,21.9C292.7,110.1,291.6,111.3,290.7,112.3z M311.6,99.7l-0.8,3.3l-5.1,1.6c1.7-13.6-0.4-22.4,3.9-38.4
		l-1-4.5c2.3-1.4,4.2-2.3,6.5-3.1c2.4,0.8,6.1,3.8,7.6,5.7c1.1,1.2,1,1.2,0.2,3.7c-1.6,4.9-5.1,15.1-6.3,26.4
		C316.3,97.1,315.6,97.8,311.6,99.7z M311.1,118l-3.9-0.1l-3.9,3.2c-0.9-0.9-2.1-1.6-2.2-4c0-1,1.7-4.5,2.7-6.7
		c0.4-0.7,0.8-1.3,1.7-1.9c1.7-1.2,5.6-2.4,6.7-2.5c1.4-0.1,1.7,0.6,1.7,1.2C313.9,108.1,313.2,114.8,311.1,118L311.1,118z"/>
</g>
</svg>
