<?xml version="1.0" encoding="UTF-8" standalone="no"?>
<!-- Generator: Adobe Illustrator 22.0.1, SVG Export Plug-In . SVG Version: 6.00 Build 0)  -->

<svg
   xmlns:dc="http://purl.org/dc/elements/1.1/"
   xmlns:cc="http://creativecommons.org/ns#"
   xmlns:rdf="http://www.w3.org/1999/02/22-rdf-syntax-ns#"
   xmlns:svg="http://www.w3.org/2000/svg"
   xmlns="http://www.w3.org/2000/svg"
   xmlns:sodipodi="http://sodipodi.sourceforge.net/DTD/sodipodi-0.dtd"
   xmlns:inkscape="http://www.inkscape.org/namespaces/inkscape"
   version="1.1"
   id="Layer_1"
   x="0px"
   y="0px"
   viewBox="0 0 322 124"
   style="enable-background:new 0 0 322 124;"
   xml:space="preserve"
   inkscape:version="0.91 r13725"
   sodipodi:docname="logo.svg"><metadata
     id="metadata3432"><rdf:RDF><cc:Work
         rdf:about=""><dc:format>image/svg+xml</dc:format><dc:type
           rdf:resource="http://purl.org/dc/dcmitype/StillImage" /><dc:title></dc:title></cc:Work></rdf:RDF></metadata><defs
     id="defs3430" /><sodipodi:namedview
     pagecolor="#ffffff"
     bordercolor="#666666"
     borderopacity="1"
     objecttolerance="10"
     gridtolerance="10"
     guidetolerance="10"
     inkscape:pageopacity="0"
     inkscape:pageshadow="2"
     inkscape:window-width="3836"
     inkscape:window-height="2085"
     id="namedview3428"
     showgrid="false"
     inkscape:zoom="11.478261"
     inkscape:cx="160.80642"
     inkscape:cy="62"
     inkscape:window-x="0"
     inkscape:window-y="2196"
     inkscape:window-maximized="0"
     inkscape:current-layer="g3407" /><style
     type="text/css"
     id="style3405">
	.st0{font-family:'AGaramondPro-Regular';}
	.st1{font-size:64px;}
	.st2{font-size:38.4px;}
	.st3{fill:url(#SVGID_1_);}
</style><g
     transform="translate(-2 -1)"
     id="g3407"><g
       transform="matrix(1 0 0 1 6.399536e-02 46.6)"
       style="font-size:64px;font-family:AGaramondPro-Regular"
       id="text3409"><path
         d="m 13.44,-38.144 c 0,-2.048 0.064,-2.304 3.456,-2.304 6.656,0 10.304,4.032 10.304,10.24 0,5.568 -2.496,9.472 -9.408,10.752 -0.384,0.128 -0.384,1.088 0.064,1.28 2.624,0 6.016,-0.576 8.832,-1.92 2.752,-1.344 6.4,-4.288 6.4,-10.176 0,-4.416 -2.176,-7.744 -5.12,-9.6 -3.008,-1.856 -6.976,-2.56 -12.288,-2.56 -5.312,0 -9.28,0.064 -12.672,0.512 -0.512,0.256 -0.576,1.216 -0.128,1.6 l 2.304,0.256 c 2.88,0.32 3.008,1.408 3.008,6.848 l 0,23.616 c 0,6.72 -0.128,7.488 -3.84,8 L 3.008,-1.408 C 2.624,-1.024 2.752,0 3.136,0.192 5.952,0.064 8.256,0 10.944,0 c 2.56,0 4.672,0.064 8.32,0.192 0.384,-0.192 0.512,-1.28 0.128,-1.6 L 17.664,-1.6 c -4.096,-0.448 -4.224,-1.28 -4.224,-8 l 0,-28.544 z"
         style="font-style:normal;font-variant:normal;font-weight:normal;font-stretch:normal;font-family:'Adobe Garamond Pro';-inkscape-font-specification:'Adobe Garamond Pro'"
         id="path3439" /><path
         d="m 43.426,-20.096 c 0,-3.136 0.064,-4.48 0.192,-5.568 -0.064,-0.256 -0.256,-0.384 -0.64,-0.448 -1.408,0.512 -3.904,1.088 -6.848,1.152 -0.448,0.192 -0.512,1.088 -0.128,1.408 l 0.768,0.32 c 1.92,0.832 1.92,1.408 1.92,5.44 l 0,10.688 c 0,5.184 2.112,8 7.744,8 3.776,0 6.912,-2.112 8.832,-3.328 0.384,0 0.576,0.32 0.576,0.896 l 0,2.624 c 0.128,0.256 0.448,0.448 0.768,0.448 2.176,-1.216 5.888,-1.856 8.384,-2.368 0.512,-0.256 0.448,-1.536 0.064,-1.856 -0.896,0.192 -1.728,0.32 -2.496,0.32 -1.792,0 -1.984,-1.92 -1.984,-6.976 l 0,-10.752 c 0,-2.368 0.064,-4.352 0.192,-5.568 -0.064,-0.256 -0.256,-0.384 -0.576,-0.448 -1.408,0.64 -4.928,1.088 -7.488,1.152 -0.512,0.256 -0.512,1.152 -0.064,1.408 l 0.832,0.32 c 1.92,0.768 2.368,0.896 2.368,5.056 l 0,10.496 c 0,1.984 -0.448,2.944 -1.28,3.712 -1.408,1.216 -3.456,1.92 -5.184,1.92 -4.864,0 -5.952,-2.944 -5.952,-7.36 l 0,-10.688 z"
         style="font-style:normal;font-variant:normal;font-weight:normal;font-stretch:normal;font-family:'Adobe Garamond Pro';-inkscape-font-specification:'Adobe Garamond Pro'"
         id="path3441" /><path
         d="m 70.8,-5.568 c 0,3.328 -0.064,4.544 -0.128,5.44 0.128,0.256 0.384,0.384 0.64,0.384 0.128,0 0.192,0 0.256,-0.064 0.32,-0.448 0.832,-0.96 1.344,-0.96 0.512,0 1.344,0.384 2.688,0.832 1.28,0.384 3.072,0.832 5.44,0.832 8.576,0 14.72,-5.952 14.72,-14.464 0,-7.04 -4.928,-12.544 -12.224,-12.544 -3.136,0 -5.696,1.152 -7.36,2.112 -0.384,0 -0.64,-0.256 -0.64,-1.344 l 0,-12.096 c 0,-2.816 0.128,-5.696 0.256,-7.936 -0.128,-0.256 -0.384,-0.384 -0.64,-0.384 -2.432,1.28 -5.504,2.112 -6.976,2.688 -0.32,0.192 -0.32,1.088 0,1.28 l 0.64,0.384 c 1.92,1.152 1.984,1.536 1.984,5.312 l 0,30.528 z m 4.736,-13.12 c 0,-2.496 0.128,-3.2 0.768,-3.648 0.896,-0.576 2.432,-1.024 4.352,-1.024 6.336,0 9.728,5.12 9.728,11.712 0,5.504 -2.368,10.624 -8.384,10.624 -2.048,0 -3.776,-0.768 -4.864,-2.112 -1.088,-1.344 -1.6,-3.328 -1.6,-5.568 l 0,-9.984 z"
         style="font-style:normal;font-variant:normal;font-weight:normal;font-stretch:normal;font-family:'Adobe Garamond Pro';-inkscape-font-specification:'Adobe Garamond Pro'"
         id="path3443" /><path
         d="m 108.368,-37.44 c 0,-2.816 0.128,-6.016 0.192,-7.936 -0.128,-0.256 -0.384,-0.384 -0.64,-0.384 -2.304,1.216 -5.312,2.176 -6.912,2.688 -0.32,0.192 -0.32,1.088 0,1.28 l 0.64,0.384 c 1.92,1.152 1.984,1.536 1.984,5.312 l 0,28.928 c 0,4.608 -0.064,5.248 -2.432,5.568 l -1.472,0.192 C 99.28,-1.088 99.408,0 99.856,0.192 101.776,0.064 103.696,0 106,0 c 2.24,0 4.096,0.064 6.208,0.192 0.448,-0.192 0.576,-1.28 0.128,-1.6 L 110.8,-1.6 c -2.304,-0.32 -2.432,-0.96 -2.432,-5.568 l 0,-30.272 z"
         style="font-style:normal;font-variant:normal;font-weight:normal;font-stretch:normal;font-family:'Adobe Garamond Pro';-inkscape-font-specification:'Adobe Garamond Pro'"
         id="path3445" /><path
         d="m 120.022,-7.168 c 0,4.608 -0.064,5.248 -2.432,5.568 l -1.344,0.192 c -0.448,0.32 -0.32,1.408 0.128,1.6 C 118.166,0.064 120.086,0 122.39,0 c 2.24,0 4.096,0.064 6.016,0.192 0.448,-0.192 0.576,-1.28 0.128,-1.6 L 127.19,-1.6 c -2.304,-0.32 -2.432,-0.96 -2.432,-5.568 l 0,-11.52 c 0,-2.624 0.128,-5.696 0.256,-7.936 -0.064,-0.256 -0.32,-0.384 -0.64,-0.384 -1.472,0.96 -5.12,2.624 -6.592,3.136 -0.32,0.192 -0.32,0.896 -0.064,1.152 l 0.576,0.384 c 1.728,1.152 1.728,1.472 1.728,3.968 l 0,11.2 z m 2.112,-32.768 c -1.92,0 -3.456,1.344 -3.456,3.456 0,1.728 1.28,3.2 3.264,3.2 1.792,0 3.392,-1.024 3.392,-3.328 0,-1.792 -1.28,-3.328 -3.2,-3.328 z"
         style="font-style:normal;font-variant:normal;font-weight:normal;font-stretch:normal;font-family:'Adobe Garamond Pro';-inkscape-font-specification:'Adobe Garamond Pro'"
         id="path3447" /><path
         d="m 142.154,-26.112 c -4.864,0 -8.704,2.624 -8.704,7.296 0,3.52 2.624,5.76 6.336,7.872 2.368,1.344 4.928,2.944 4.928,5.888 0,2.752 -1.984,4.096 -4.288,4.096 -3.648,0 -5.696,-3.072 -6.784,-6.592 -0.32,-0.384 -1.152,-0.32 -1.472,0.064 -0.128,2.112 0.256,5.248 0.768,6.464 1.6,1.28 3.84,1.92 6.848,1.92 4.736,0 9.216,-2.432 9.216,-7.296 0,-4.544 -3.136,-6.72 -6.528,-8.64 -2.24,-1.28 -4.928,-2.688 -4.928,-5.312 0,-2.304 1.6,-3.904 4.096,-3.904 2.624,0 4.544,1.856 5.632,4.672 0.32,0.384 1.28,0.256 1.536,-0.192 0,-1.728 -0.448,-3.776 -1.024,-5.184 -0.576,-0.512 -2.944,-1.152 -5.632,-1.152 z"
         style="font-style:normal;font-variant:normal;font-weight:normal;font-stretch:normal;font-family:'Adobe Garamond Pro';-inkscape-font-specification:'Adobe Garamond Pro'"
         id="path3449" /><path
         d="m 156.507,-7.168 c 0,4.608 -0.064,5.312 -2.432,5.568 l -1.6,0.192 c -0.448,0.32 -0.32,1.408 0.128,1.6 C 154.651,0.064 156.571,0 158.875,0 c 2.24,0 4.096,0.064 6.016,0.192 0.448,-0.192 0.576,-1.344 0.128,-1.6 L 163.675,-1.6 c -2.304,-0.32 -2.432,-0.96 -2.432,-5.568 l 0,-10.752 c 0,-2.24 0.192,-2.56 1.344,-3.52 1.152,-0.96 2.816,-1.728 4.992,-1.728 4.096,0 6.08,2.752 6.08,6.848 l 0,9.152 c 0,4.608 -0.064,5.184 -2.432,5.568 l -1.28,0.192 c -0.448,0.32 -0.32,1.408 0.128,1.6 C 171.803,0.064 173.723,0 176.027,0 c 2.24,0 4.096,0.064 6.4,0.192 0.448,-0.192 0.576,-1.28 0.128,-1.6 L 180.827,-1.6 c -2.304,-0.256 -2.432,-0.96 -2.432,-5.568 l 0,-10.688 c 0,-4.48 -2.176,-8.256 -8.256,-8.256 -3.264,0 -6.336,1.536 -8.64,3.328 -0.192,-0.128 -0.256,-0.64 -0.256,-1.216 l 0,-13.44 c 0,-2.816 0.128,-6.016 0.192,-7.936 -0.128,-0.256 -0.384,-0.384 -0.64,-0.384 -2.304,1.216 -5.312,2.176 -6.912,2.688 -0.32,0.192 -0.32,1.088 0,1.28 l 0.64,0.384 c 1.92,1.152 1.984,1.536 1.984,5.312 l 0,28.928 z"
         style="font-style:normal;font-variant:normal;font-weight:normal;font-stretch:normal;font-family:'Adobe Garamond Pro';-inkscape-font-specification:'Adobe Garamond Pro'"
         id="path3451" /></g><g
       transform="matrix(1 0 0 1 198.2944 47)"
       style="font-size:38.40000153px;font-family:AGaramondPro-Regular"
       id="text3411"><path
         d="m 9.5232004,-15.667201 c -4.5312002,0 -8.1792003,3.456001 -8.1792003,8.2944007 0,4.8000002 3.4560001,7.91040032 7.8720003,7.91040032 4.8000006,0 8.1024006,-3.45600012 8.1024006,-8.25600032 0,-4.7231997 -3.4944,-7.9488007 -7.7952006,-7.9488007 z m 4.4928006,8.5632007 c 0,2.9568001 -1.0368,6.48960028 -4.4160006,6.48960028 -3.3792002,0 -4.9536002,-3.76320018 -4.9536002,-7.25760028 0,-4.2239997 1.8816001,-6.6432007 4.4160002,-6.6432007 3.6480006,0 4.9536006,4.147201 4.9536006,7.4112007 z"
         style="font-style:normal;font-variant:normal;font-weight:normal;font-stretch:normal;font-family:'Adobe Garamond Pro';-inkscape-font-specification:'Adobe Garamond Pro'"
         id="path3454" /><path
         d="m 22.438201,-4.3008002 c 0,2.7648001 -0.0384,3.1104002 -1.4592,3.34080016 l -0.7296,0.11520001 C 19.980601,-0.65280003 20.057401,0 20.326201,0.1152 21.324601,0.0384 22.476601,0 23.859001,0 c 1.344,0 2.4576,0.0384 4.262401,0.1152 0.2688,-0.1152 0.3456,-0.76800003 0.0768,-0.96000003 l -1.382401,-0.11520001 c -1.4592,-0.11519996 -1.536,-0.57600006 -1.536,-3.34080016 l 0,-5.2224002 c 0,-1.3055996 0.1152,-2.4191996 0.4992,-2.9567996 0.3072,-0.422401 0.768,-0.768001 1.3824,-0.768001 0.537601,0 1.113601,0.2304 1.689601,0.6144 0.2688,0.153601 0.4608,0.268801 0.8448,0.268801 0.6144,0 1.6512,-0.499201 1.6512,-1.766401 0,-0.9216 -0.768,-1.536 -1.728,-1.536 -1.4208,0 -2.880001,1.1904 -4.224001,2.304 -0.0768,-0.0384 -0.1152,-0.1536 -0.1152,-0.3456 l 0,-2.2272 c 0,-0.1536 -0.1152,-0.2304 -0.3072,-0.2688 -0.96,0.576 -2.9952,1.5744 -3.8784,1.8816 -0.192,0.1152 -0.192,0.5376 -0.0384,0.6912 l 0.3456,0.2304 c 1.0368,0.6912 1.0368,0.883201 1.0368,2.380801 l 0,6.7199998 z"
         style="font-style:normal;font-variant:normal;font-weight:normal;font-stretch:normal;font-family:'Adobe Garamond Pro';-inkscape-font-specification:'Adobe Garamond Pro'"
         id="path3456" /></g><linearGradient
       id="SVGID_1_"
       gradientUnits="userSpaceOnUse"
       x1="-133.4797"
       y1="478.3871"
       x2="-132.4797"
       y2="477.5638"
       gradientTransform="matrix(241.2129 0 0 -65.872 32268.8164 31574.3359)"><stop
         offset="0"
         style="stop-color:#EE5E31"
         id="stop3414" /><stop
         offset="0.222"
         style="stop-color:#FFE500"
         id="stop3416" /><stop
         offset="0.4127"
         style="stop-color:#90CC2D"
         id="stop3418" /><stop
         offset="0.6023"
         style="stop-color:#2EE2E2"
         id="stop3420" /><stop
         offset="0.8082"
         style="stop-color:#4986FC"
         id="stop3422" /><stop
         offset="1"
         style="stop-color:#FD14FF"
         id="stop3424" /></linearGradient><path
       class="st3"
       d="M84.8,94.3l5.9-1.4c0.6-5.2,1.7-11.4,2.4-13.2c2.3-2.2,6.1-4.7,8.4-5.7c-2.4-0.8-7.3-1.9-12.9-2.9   c-2.6-0.4-3.4-1.7-4-3.4c-0.9-2.8-1.7-5.5-2.3-8.5c14-0.2,31.7,1.6,38.6,7.8c6.3,5.6,11.7,16.9,12.1,21.7c0.3,3.6-0.2,5.6-3.5,8.4   c-7.5,6.3-21.3,9-29,9.8l-1.7-1.8l-2.1,10.7L99,118l-0.6,2.9l-7.9,3.6l-1.3-0.7c-0.1-6.4-0.2-18.4,0.3-22.3l-0.7-0.4L84.8,94.3z    M100.2,90.3c6.3-1.8,14.4-4.7,18.3-7.4c-3.7-3.4-11.1-7-15.9-8.5C102,80,100.9,86.6,100.2,90.3z M150.8,108.2l1.6,4.8l12.6-4.7   l-0.1,5.7c-1.9,1.6-5.3,4.7-7.9,4.8c-5.9,0.2-14.7-4.5-20-10.9c-0.4-16.7,10.4-25.8,10.9-26c1.7-0.6,10.9,1.7,15.2,4   c0.8,1.3,1.5,2.8,2.1,4.1C163.2,93.4,154.5,104.2,150.8,108.2L150.8,108.2z M150.8,99.7c2.2-2.8,5.5-7.2,6.7-9.9   C154.2,89.8,151.1,93.7,150.8,99.7z M193.2,104.3c-2.5,2-6.5,5.2-10.4,7.4c1.8,1,3.3,2.2,5,3.6c-8.3,6.8-16.7,5.4-16.7,1.5   c-0.2-4.6,6.8-13.5,10.6-18c-5.2-4.2-11.6-3.3-11.8-10.3c-0.1-2.8,0.7-7.5,1.3-8c0.6-0.5,11.7,2.5,16.7,4.9c4.3,2,5.4,3.2,5.8,6.8   C194.1,96.1,193.5,101.5,193.2,104.3z M219.8,88.6c-1.2,6.2-4,20.1-4.6,27.7l-2.6,1.7c-2.2-0.9-6-2.5-6.6-3.2   c-1.4-1.4-2.9-6.6-3.3-8.6l-4-0.1l0.2-6.3c6.2-9.5,11.1-12.5,18.7-14.5L219.8,88.6z M210.7,81.5l-6.5-4.4c2.8-2.9,7-7.1,8.1-7.8   c0.7-0.5,5.3-1.7,7.6-2.3l2.4,5.3L210.7,81.5z M227.8,92.7c5.7-6.4,17.5-12,21.2-13.1c2.2,1.5,3.4,2.4,5.4,4.8   c-2.9,1.5-9.7,5.5-12.5,10.4c4.2,1.7,11.2,6,11.2,9c0,5.3-7.2,14-19.4,19.8l-0.1-5.2c2.1-1.6,5.2-4.3,6-7.5c-1.7-0.5-5.5-1.3-7.3-2   c-1.4-0.6-2.2-1.7-2.8-3.7C228.2,100.5,227.8,95.2,227.8,92.7z M290.7,112.3l0.8,2.1l-6.1,5.2c-1.4-4.3-3.1-8.6-7.5-13.2   c-4.4,3-9.8,9.7-13.2,16.7l-4.3,1c-2-8.4-2.7-18.6-2-22.7c0.4-2.7,12.4-28,23.4-41.7c3.3-0.4,6.3-0.3,8.9,0.4   c-0.6,6.7-6.5,20.9-12.7,27.9c-1.4,3.7-6.2,15.2-8.1,19.6l0.6,0.3c4.3-7.9,8.3-13.1,12.9-19.6l2.2,0.2l0.8-1.5l4.4,0.2   c1.4,7.4,2.9,20.6,2.4,21.9C292.7,110.1,291.6,111.3,290.7,112.3z M311.6,99.7l-0.8,3.3l-5.1,1.6c1.7-13.6-0.4-22.4,3.9-38.4   l-1-4.5c2.3-1.4,4.2-2.3,6.5-3.1c2.4,0.8,6.1,3.8,7.6,5.7c1.1,1.2,1,1.2,0.2,3.7c-1.6,4.9-5.1,15.1-6.3,26.4   C316.3,97.1,315.6,97.8,311.6,99.7z M311.1,118l-3.9-0.1l-3.9,3.2c-0.9-0.9-2.1-1.6-2.2-4c0-1,1.7-4.5,2.7-6.7   c0.4-0.7,0.8-1.3,1.7-1.9c1.7-1.2,5.6-2.4,6.7-2.5c1.4-0.1,1.7,0.6,1.7,1.2C313.9,108.1,313.2,114.8,311.1,118L311.1,118z"
       id="path3426" /></g></svg>