<svg height="67" viewBox="0 0 242 67" width="242" xmlns="http://www.w3.org/2000/svg" xmlns:xlink="http://www.w3.org/1999/xlink"><linearGradient id="a" x1="0%" x2="100%" y1="0%" y2="82.337277%"><stop offset="0" stop-color="#ee5e31"/><stop offset=".222046604" stop-color="#ffe500"/><stop offset=".412707731" stop-color="#90cc2d"/><stop offset=".602262464" stop-color="#2ee2e2"/><stop offset=".808232478" stop-color="#4986fc"/><stop offset="1" stop-color="#fd14ff"/></linearGradient><path d="m84.774 94.332 5.888-1.38c.644-5.244 1.748-11.408 2.392-13.248 2.3-2.208 6.072-4.692 8.372-5.704-2.392-.828-7.268-1.932-12.88-2.852-2.576-.368-3.404-1.656-3.956-3.404-.92-2.76-1.656-5.52-2.3-8.464 13.984-.184 31.74 1.564 38.64 7.82 6.256 5.612 11.684 16.928 12.052 21.712.276 3.588-.184 5.612-3.496 8.372-7.544 6.256-21.252 9.016-28.98 9.844l-1.656-1.84-2.116 10.672 2.3 2.116-.644 2.852-7.912 3.588-1.288-.736c-.092-6.44-.184-18.4.276-22.264l-.736-.368zm15.456-4.048c6.256-1.84 14.444-4.692 18.308-7.36-3.68-3.404-11.132-6.992-15.916-8.464-.644 5.52-1.748 12.144-2.392 15.824zm50.6 17.94 1.564 4.784 12.604-4.692-.092 5.704c-1.932 1.564-5.336 4.692-7.912 4.784-5.888.184-14.72-4.508-19.964-10.856-.368-16.744 10.396-25.76 10.948-26.036 1.656-.552 10.948 1.748 15.18 4.048.828 1.288 1.472 2.76 2.116 4.14-2.116 3.312-10.764 14.076-14.444 18.124zm0-8.556c2.208-2.76 5.52-7.176 6.716-9.936-3.312.092-6.44 3.956-6.716 9.936zm42.412 4.6c-2.484 2.024-6.532 5.244-10.396 7.36 1.84 1.012 3.312 2.208 4.968 3.588-8.28 6.808-16.744 5.428-16.744 1.472-.184-4.6 6.808-13.524 10.58-18.032-5.244-4.232-11.592-3.312-11.776-10.304-.092-2.76.736-7.452 1.288-8.004.644-.46 11.684 2.484 16.652 4.876 4.324 2.024 5.428 3.22 5.796 6.808.46 4.048-.092 9.476-.368 12.236zm26.588-15.64c-1.196 6.164-3.956 20.056-4.6 27.692l-2.576 1.748c-2.208-.92-5.98-2.484-6.624-3.22-1.38-1.38-2.944-6.624-3.312-8.648l-4.048-.092.184-6.256c6.164-9.476 11.132-12.512 18.676-14.536zm-9.108-7.084-6.532-4.416c2.76-2.852 6.992-7.084 8.096-7.82.736-.46 5.336-1.748 7.636-2.3l2.392 5.336zm17.112 11.132c5.704-6.44 17.48-11.96 21.16-13.064 2.208 1.472 3.404 2.392 5.428 4.784-2.944 1.472-9.66 5.52-12.512 10.396 4.232 1.656 11.224 5.98 11.224 9.016 0 5.336-7.176 13.984-19.412 19.78l-.092-5.244c2.116-1.564 5.152-4.324 5.98-7.544-1.748-.46-5.52-1.288-7.268-2.024-1.38-.552-2.208-1.748-2.76-3.68-1.38-4.6-1.748-9.936-1.748-12.42zm62.836 19.596.828 2.116-6.072 5.244c-1.38-4.324-3.128-8.556-7.544-13.248-4.416 3.036-9.752 9.66-13.156 16.652l-4.324 1.012c-2.024-8.372-2.668-18.584-2.024-22.724.368-2.668 12.42-27.968 23.368-41.676 3.312-.368 6.256-.276 8.924.368-.644 6.716-6.532 20.884-12.696 27.876-1.38 3.68-6.164 15.18-8.096 19.596l.552.276c4.324-7.912 8.28-13.064 12.88-19.596l2.208.184.828-1.472 4.416.184c1.38 7.36 2.852 20.608 2.392 21.896-.46 1.104-1.564 2.3-2.484 3.312zm20.884-12.604-.828 3.312-5.06 1.564c1.748-13.616-.368-22.448 3.864-38.364l-1.012-4.508c2.3-1.38 4.232-2.3 6.532-3.128 2.392.828 6.072 3.772 7.636 5.704 1.104 1.196 1.012 1.196.184 3.68-1.564 4.876-5.06 15.088-6.256 26.404-.276 2.76-1.012 3.496-5.06 5.336zm-.46 18.308-3.864-.092-3.864 3.22c-.92-.92-2.116-1.564-2.208-4.048 0-1.012 1.656-4.508 2.668-6.716.368-.736.828-1.288 1.656-1.932 1.656-1.196 5.612-2.392 6.716-2.484 1.38-.092 1.656.644 1.748 1.196 0 1.012-.736 7.728-2.852 10.856z" fill="url(#a)" fill-rule="evenodd" transform="translate(-82 -58)"/></svg>