<svg height="52" viewBox="0 0 47 52" width="47" xmlns="http://www.w3.org/2000/svg" xmlns:xlink="http://www.w3.org/1999/xlink"><defs><path id="a" d="m44 1v35.0847458c0 2.9486389-2.3818451 5.338983-5.32 5.338983s-5.32-2.3903441-5.32-5.338983c0-2.948639 2.3818451-5.3389831 5.32-5.3389831.8159339 0 1.5889659.1843406 2.28.5137865v-18.1930564l-23.56 4.8500652v22.7444589c0 2.948639-2.5519769 5.3389831-5.7 5.3389831-3.14802307 0-5.7-2.3903441-5.7-5.3389831 0-2.9486389 2.55197693-5.338983 5.7-5.338983.96071 0 1.8659078.2226226 2.6600008.6157963l-.0000008-28.83613528z"/><filter id="b" height="120.3%" width="123.7%" x="-6.6%" y="-5.8%"><feMorphology in="SourceAlpha" operator="dilate" radius="0.5" result="shadowSpreadOuter1"/><feOffset dx="4" dy="4" in="shadowSpreadOuter1" result="shadowOffsetOuter1"/><feComposite in="shadowOffsetOuter1" in2="SourceAlpha" operator="out" result="shadowOffsetOuter1"/><feColorMatrix in="shadowOffsetOuter1" type="matrix" values="0 0 0 0 0.537388393   0 0 0 0 0.537388393   0 0 0 0 0.537388393  0 0 0 0.476987092 0"/></filter><linearGradient id="c" x1="0%" x2="101.999998%" y1="0%" y2="100.999999%"><stop offset="0" stop-color="#f00"/><stop offset=".222046604" stop-color="#ff0"/><stop offset=".412707731" stop-color="#008000"/><stop offset=".604475253" stop-color="#0ff"/><stop offset=".808232478" stop-color="#00f"/><stop offset="1" stop-color="#ee82ee"/></linearGradient><path id="d" d="m-2 20h57v6h-57z"/><filter id="e" height="250%" width="115.8%" x="-4.4%" y="-41.7%"><feMorphology in="SourceAlpha" operator="dilate" radius="0.5" result="shadowSpreadOuter1"/><feOffset dx="4" dy="4" in="shadowSpreadOuter1" result="shadowOffsetOuter1"/><feComposite in="shadowOffsetOuter1" in2="SourceAlpha" operator="out" result="shadowOffsetOuter1"/><feColorMatrix in="shadowOffsetOuter1" type="matrix" values="0 0 0 0 0.537388393   0 0 0 0 0.537388393   0 0 0 0 0.537388393  0 0 0 0.476987092 0"/></filter></defs><g fill="none" fill-rule="evenodd" transform="translate(-3)"><path d="m0 1h50v50h-50z"/><use fill="#000" filter="url(#b)" xlink:href="#a"/><use fill="#fff" fill-rule="evenodd" stroke="#000" xlink:href="#a"/><g transform="matrix(-.70710678 .70710678 .70710678 .70710678 28.974874 -12.001786)"><use fill="#000" filter="url(#e)" xlink:href="#d"/><use fill="url(#c)" fill-rule="evenodd" stroke="#000" xlink:href="#d"/></g></g></svg>