<svg height="42" viewBox="0 0 120 42" width="120" xmlns="http://www.w3.org/2000/svg"><g fill="none" fill-rule="evenodd"><path d="m1 1h118v40h-118z" stroke="#000" stroke-width="2"/><path d="m18.459 15.12c2.754 0 3.927 2.924 3.927 5.559 0 2.737-1.173 5.559-3.927 5.559s-3.927-2.822-3.927-5.559c0-2.635 1.173-5.559 3.927-5.559zm-1.445 5.559c0 1.513.153 4.777 1.445 4.777s1.445-3.264 1.445-4.777-.153-4.777-1.445-4.777-1.445 3.264-1.445 4.777zm10.574 3.128v-.476c0-.442-.034-.493-.391-.493h-3.927c-.204-.085-.255-.323-.187-.544l5.525-7.888c.187-.272.323-.408.561-.408h.493c.289 0 .425.119.17.459l-5.1 7.072c-.153.221-.17.357.374.357h2.091c.357 0 .391-.051.391-.493v-2.38c0-.391.102-.51.374-.612.442-.187 1.36-.527 1.649-.527.153 0 .221.119.221.289v3.23c0 .442.034.493.391.493h1.122c.255.136.255.799 0 .952h-1.122c-.357 0-.391.051-.391.493v.476c0 1.394.102 1.547.85 1.615l.357.034c.153.102.136.544-.034.595-.612-.034-1.513-.051-2.295-.051-1.122 0-2.142.017-2.72.051-.17-.051-.187-.493-.034-.595l.697-.051c.833-.068.935-.204.935-1.598zm6.341 2.431c-.68 0-1.377-.544-1.377-1.377 0-.799.612-1.411 1.377-1.411.816 0 1.377.68 1.377 1.411 0 .782-.561 1.377-1.377 1.377zm0-4.148c-.68 0-1.377-.51-1.377-1.326 0-.833.612-1.462 1.377-1.462.816 0 1.377.68 1.377 1.462 0 .765-.561 1.326-1.377 1.326zm5.015-6.664 4.505-.544c.136 0 .187.085.187.204-.153.646-.51 1.343-.935 1.751l-3.842.425c-.238.034-.323.204-.391.493l-.102.391c-.102.391.119.459.459.493.901.102 2.482.34 3.468.833.952.476 1.802 1.428 1.802 2.839 0 1.768-1.037 2.907-2.448 3.672s-3.179 1.088-4.607 1.122c-.255-.119-.323-.646-.102-.799 1.224-.051 2.601-.289 3.4-.765 1.003-.595 1.581-1.377 1.581-2.295 0-2.431-2.55-2.686-4.25-2.822-.544-.034-.612-.187-.51-.578l1.02-3.91c.119-.442.221-.442.765-.51zm11.645 1.904v6.477c0 1.36.102 1.53.935 1.598l.697.051c.153.102.136.544-.034.595-.612-.034-1.632-.051-2.686-.051-1.122 0-2.142.017-2.754.051-.17-.051-.187-.493-.034-.595l.697-.051c.833-.068.935-.238.935-1.598v-5.491c0-1.122-.068-1.377-.816-1.479l-.782-.102c-.153-.085-.17-.493-.034-.595.697-.102 1.496-.289 2.176-.476.748-.221 1.394-.544 1.513-.544.085 0 .204.051.238.187-.034.391-.051 1.173-.051 2.023zm5.44 8.908c-.68 0-1.377-.544-1.377-1.377 0-.799.612-1.411 1.377-1.411.816 0 1.377.68 1.377 1.411 0 .782-.561 1.377-1.377 1.377zm0-4.148c-.68 0-1.377-.51-1.377-1.326 0-.833.612-1.462 1.377-1.462.816 0 1.377.68 1.377 1.462 0 .765-.561 1.326-1.377 1.326zm5.083-6.732h3.264c1.071 0 2.244-.017 2.465-.051.119.034.17.17.153.272-.425.629-.969 1.547-1.683 2.805l-4.896 8.67c-.289.051-.782-.153-.816-.527l4.471-7.769c.374-.663.561-1.054.561-1.343 0-.221-.238-.272-.493-.272h-3.604c-.986 0-1.156.119-1.547.833-.136.153-.51.068-.578-.119.289-.833.51-1.904.663-2.55.561.034.969.051 2.04.051zm10.387-.238c2.754 0 3.927 2.924 3.927 5.559 0 2.737-1.173 5.559-3.927 5.559s-3.927-2.822-3.927-5.559c0-2.635 1.173-5.559 3.927-5.559zm-1.445 5.559c0 1.513.153 4.777 1.445 4.777s1.445-3.264 1.445-4.777-.153-4.777-1.445-4.777-1.445 3.264-1.445 4.777zm11.237 3.349v-7.48c0-.68 0-.867-.34-1.071l-.289-.17c-.119-.102-.119-.408 0-.51.731-.17 1.751-.578 2.601-.952.102 0 .221.034.289.119-.034.697-.051 1.411-.051 2.482v7.582c0 1.19.068 1.326.663 1.394l.289.034c.136.102.136.493-.017.595-.561-.034-1.275-.051-2.04-.051-.731 0-1.445.017-2.04.051-.153-.102-.153-.493-.017-.595l.323-.034c.561-.051.629-.204.629-1.394zm9.758-2.057h-3.264c-.391 0-.425.034-.425.306 0 1.275.816 2.516 2.397 2.516.476 0 1.122-.102 1.581-.884.187-.034.442.102.442.391-.697 1.445-1.955 1.938-2.975 1.938-2.295 0-3.536-1.615-3.536-3.468 0-2.142 1.547-3.808 3.672-3.808 1.768 0 2.72 1.139 2.72 2.448 0 .323-.085.561-.612.561zm-2.771-.748h.629c.238 0 .51-.034.697-.153.085-.051.119-.221.119-.391 0-.561-.323-.935-.901-.935-.714 0-1.326.68-1.326 1.224 0 .238.238.255.782.255zm9.18-1.105h-1.513c-.425 0-.442.017-.442.476v3.434c0 1.224.068 1.36.629 1.411l.561.051c.136.102.136.459-.017.561-.799-.034-1.513-.051-2.312-.051-.765 0-1.479.017-2.006.051-.153-.102-.153-.459-.017-.561l.272-.034c.612-.068.68-.204.68-1.428v-3.434c0-.459-.034-.476-.425-.476h-.629c-.102-.068-.136-.374-.051-.459l.731-.374c.221-.119.374-.221.374-.442 0-.731.119-1.972.476-2.805.493-1.122 1.428-2.193 3.332-2.193.986 0 1.989.51 1.989 1.394 0 .561-.408.918-.986.918-.357 0-.561-.17-.68-.306-.731-.935-1.003-1.122-1.207-1.122-.442 0-.714.493-.714 2.074v1.921c0 .459.017.476.442.476h1.615c.085.051.119.187.119.34 0 .221-.068.476-.221.578zm4.981 0h-1.53c-.221 0-.238.017-.238.391v2.55c0 .952 0 2.006 1.19 2.006.238 0 .51-.119.714-.255.17.051.272.238.238.442-.476.51-1.394.986-2.448.986-1.411 0-1.904-.816-1.904-1.938v-3.791c0-.357-.017-.391-.323-.391h-.527c-.187-.068-.238-.408-.102-.527.527-.187 1.003-.493 1.411-.765.306-.221.731-.578 1.258-1.326.119-.068.425-.051.51.085v1.275c0 .323.017.34.323.34h1.513c.085.068.136.17.136.323 0 .187-.051.493-.221.595zm2.363-5.1c.884 0 1.36.153 1.36.731 0 .272-.102.799-.272 1.989l-.714 4.777c-.204.136-.544.136-.748 0l-.714-4.777c-.17-1.19-.272-1.717-.272-1.989 0-.578.476-.731 1.36-.731zm0 11.22c-.68 0-1.377-.544-1.377-1.377 0-.799.612-1.411 1.377-1.411.816 0 1.377.68 1.377 1.411 0 .782-.561 1.377-1.377 1.377z" fill="#000"/></g></svg>