<svg height="107" viewBox="0 0 80 107" width="80" xmlns="http://www.w3.org/2000/svg"><g fill="none" fill-rule="evenodd"><path d="m66.2524531 1h-65.2524531v104.666667h78v-91.9191201z" stroke="#000" stroke-width="2"/><g fill="#000"><path d="m66.6666667 0h13.3333333v13.3333333z" transform="matrix(-1 0 0 -1 146.666666 13.333334)"/><path d="m8.50666667 22.4266667c.61333333-.96 1.2-1.76 1.86666663-2.5866667l.5333334-.0266667c.4266666.2666667 1.28.5333334 1.68.5866667.6933333.1066667.5333333.6133333.2666666 1.28-.56.3733333-2.3733333 1.6-3.75999997 2-.32-.4266667-.50666666-.88-.58666666-1.2533333zm7.76000003-10.7733334 3.12-.5866666c.5333333-1.0133334 1.0666666-1.8666667 1.6533333-2.8266667.8266667-.32 1.52-.69333333 2.2133333-1.25333333l1.1466667-.10666667c-.1333333 1.28-.6133333 2.61333333-1.0133333 3.92l.8533333-.0533333.1333333.4266666.3733334.2666667.0266666 2.64c-.3733333.1866667-.6933333.5066667-.8533333 1.12l-1.68.4533333c-.3466667.9866667-1.5466667 4.0533334-1.3066667 6.08 1.12-.5866666 1.84-1.2 2.64-2.2666666l.2933334.24c-.4266667.6133333-.5866667 1.6266666-.3733334 2.64-.3466666.48-1.2266666 1.3866666-1.68 1.36-.7733333-.0266667-3.28-2.1866667-3.6266666-2.6133334-.48-.6666666-.64-4.3733333-.4266667-6.32l-.8533333.6133334-.6133334-.2933334zm12.1866666 8.6933334c-.88.8533333-1.7866666 1.68-2.7466666 2.48l-.0266667-2.08 1.68-2.16c-.7733333-1.1466667-1.3333333-2.9066667-1.4133333-3.4133334.64-1.0133333 1.84-2.2933333 2.2133333-2.5866666.4266667-.32.5866667-.4533334.8533333.0533333l1.5733334 2.8533333c1.2533333-1.3066666 2.3733333-2.6133333 3.4933333-4.1066666l.6666667.1866666c.1066666.64.08 2.2133334-.2666667 2.8266667-.5066667.88-1.3333333 1.6533333-2.7733333 2.9866667.8266666 1.4666666 2.08 3.84 3.6266666 5.28l-.4266666.64-.5066667-.2666667-.08.2133333c.2666667.2933334.56.5333334 1.0933333.8266667l-.0266666.6666667c-3.0133334.1066666-6.08-2.8533334-6.9333334-4.4zm7.7333334-8.6933334 3.12-.5866666c.5333333-1.0133334 1.0666666-1.8666667 1.6533333-2.8266667.8266667-.32 1.52-.69333333 2.2133333-1.25333333l1.1466667-.10666667c-.1333333 1.28-.6133333 2.61333333-1.0133333 3.92l.8533333-.0533333.1333333.4266666.3733334.2666667.0266666 2.64c-.3733333.1866667-.6933333.5066667-.8533333 1.12l-1.68.4533333c-.3466667.9866667-1.5466667 4.0533334-1.3066667 6.08 1.12-.5866666 1.84-1.2 2.64-2.2666666l.2933334.24c-.4266667.6133333-.5866667 1.6266666-.3733334 2.64-.3466666.48-1.2266666 1.3866666-1.68 1.36-.7733333-.0266667-3.28-2.1866667-3.6266666-2.6133334-.48-.6666666-.64-4.3733333-.4266667-6.32l-.8533333.6133334-.6133334-.2933334z"/><path d="m9 43h61v2h-61z"/><path d="m9 55h61v2h-61z"/><path d="m9 67h61v2h-61z"/></g></g></svg>